<?xml version="1.0" encoding="UTF-8" standalone="no"?>
<svg
   xmlns:dc="http://purl.org/dc/elements/1.1/"
   xmlns:cc="http://creativecommons.org/ns#"
   xmlns:rdf="http://www.w3.org/1999/02/22-rdf-syntax-ns#"
   xmlns:svg="http://www.w3.org/2000/svg"
   xmlns="http://www.w3.org/2000/svg"
   xmlns:sodipodi="http://sodipodi.sourceforge.net/DTD/sodipodi-0.dtd"
   xmlns:inkscape="http://www.inkscape.org/namespaces/inkscape"
   inkscape:version="1.0 (4035a4fb49, 2020-05-01)"
   sodipodi:docname="starGrading.svg"
   id="Layer_1"
   data-name="Layer 1"
   width="102.12652mm"
   height="40.264519mm"
   viewBox="0 0 385.98998 152.18085"
   version="1.1">
  <sodipodi:namedview
     inkscape:current-layer="Layer_1"
     inkscape:window-maximized="0"
     inkscape:window-y="0"
     inkscape:window-x="0"
     inkscape:cy="140.13513"
     inkscape:cx="306.82165"
     inkscape:zoom="1.31"
     units="mm"
     fit-margin-bottom="0"
     fit-margin-right="0"
     fit-margin-left="0"
     fit-margin-top="0"
     showgrid="false"
     id="namedview1054"
     inkscape:window-height="690"
     inkscape:window-width="1280"
     inkscape:pageshadow="2"
     inkscape:pageopacity="0"
     guidetolerance="10"
     gridtolerance="10"
     objecttolerance="10"
     borderopacity="1"
     bordercolor="#666666"
     pagecolor="#ffffff" />
  <metadata
     id="metadata191">
    <rdf:RDF>
      <cc:Work
         rdf:about="">
        <dc:format>image/svg+xml</dc:format>
        <dc:type
           rdf:resource="http://purl.org/dc/dcmitype/StillImage" />
        <dc:title>The Forum Footer Logos</dc:title>
      </cc:Work>
    </rdf:RDF>
  </metadata>
  <defs
     id="defs189" />
  <title
     id="title2">The Forum Footer Logos</title>
  <path
     d="m 117.01809,37.194551 a 5.4515189,5.4515189 0 0 0 5.44182,5.461219 h 0.28131 a 5.5194203,5.5194203 0 0 0 5.72312,-5.306016 q 0,-0.0776 0,-0.145503 a 5.412718,5.412718 0 0 0 -5.42242,-5.403018 h -0.3007 c -3.38538,0.0097 -5.72313,2.308651 -5.72313,5.393318 z m 9.80692,0 c 0,3.259271 -1.69754,5.082911 -4.06439,5.082911 -2.36685,0 -4.09349,-1.852741 -4.09349,-5.102312 0,-3.24957 1.53263,-5.08291 4.07409,-5.08291 2.54145,0 4.08379,1.85274 4.08379,5.179913 z"
     style="fill:#010101;stroke-width:1"
     id="path18" />
  <path
     d="m 133.14954,42.393864 v -0.126103 c -1.01852,-0.271605 -1.08642,-1.086423 -1.08642,-3.385373 v -1.775139 h 2.73546 c 1.54233,0 2.43475,0.339507 2.91006,1.406531 h 0.097 v -3.152569 h -0.11641 c -0.47531,1.115524 -1.32892,1.39683 -2.91006,1.39683 h -2.70636 v -4.258393 h 1.64904 c 2.43475,0 4.10319,0.242506 5.49032,1.940043 h 0.1164 l -0.80512,-2.231049 h -8.73019 v 0.135803 c 0.62082,0.0776 0.89242,0.485011 0.89242,1.309529 v 5.267215 c 0,2.279549 0,3.21077 -1.06702,3.472675 v 0.0873 c 0.54321,0 1.07672,0 1.65873,0 0.58202,0 1.13493,-0.126103 1.87214,-0.0873 z"
     style="fill:#010101;stroke-width:1"
     id="path20" />
  <path
     d="m 149.67871,32.179542 a 2.9100635,2.9100635 0 0 1 3.17196,2.347451 h 0.13581 l 0.58201,-1.940043 a 8.9532952,8.9532952 0 0 0 -3.88008,-0.834218 c -2.79367,0 -4.4815,1.445332 -4.4815,3.036166 0,1.37743 0.97002,2.240749 2.91006,2.657858 a 21.340465,21.340465 0 0 1 3.23017,0.620814 1.6781366,1.6781366 0 0 1 1.09613,1.658736 c 0,1.348329 -1.27073,2.512355 -3.19137,2.512355 a 3.6860804,3.6860804 0 0 1 -3.82189,-2.910064 h -0.1067 l -0.65961,2.28925 a 9.7002115,9.7002115 0 0 0 4.6173,1.028223 c 2.91006,0 4.7725,-1.619936 4.7725,-3.540577 0,-1.387131 -0.97002,-2.192248 -2.91006,-2.531756 a 15.006227,15.006227 0 0 1 -3.44358,-0.708115 1.5811345,1.5811345 0 0 1 -0.97002,-1.484132 c -0.0291,-1.202827 1.18343,-2.201948 2.94887,-2.201948 z"
     style="fill:#010101;stroke-width:1"
     id="path22" />
  <path
     d="m 161.19286,31.810933 a 5.364217,5.364217 0 0 0 -5.71343,4.985909 q 0,0.203705 0,0.407409 a 5.4418187,5.4418187 0 0 0 5.42242,5.461219 h 0.30071 a 5.5194203,5.5194203 0 0 0 5.72312,-5.306016 q 0,-0.0776 0,-0.145503 c 0.0194,-3.045866 -2.31835,-5.403018 -5.73282,-5.403018 z m 0,10.495629 c -2.50266,0 -4.09349,-1.85274 -4.09349,-5.102311 0,-3.249571 1.52293,-5.082911 4.06439,-5.082911 2.54145,0 4.14199,1.83334 4.14199,5.160513 0,3.327172 -1.69754,5.04411 -4.07409,5.04411 z"
     style="fill:#010101;stroke-width:1"
     id="path24" />
  <path
     d="m 168.92393,37.989968 c 0,1.610235 0.0873,2.74516 0.97002,3.569678 a 5.4418187,5.4418187 0 0 0 3.73458,1.076724 c 2.91006,0 4.31659,-1.474433 4.31659,-4.432997 v -1.542334 c 0,-2.667558 0.1455,-3.986787 1.40653,-4.510598 v -0.116403 c -0.55291,0 -1.10582,0.0679 -1.65873,0.0679 a 13.075885,13.075885 0 0 1 -1.46474,-0.0679 v 0.116403 c 1.32893,0.611113 1.32893,1.940042 1.32893,4.510598 v 1.610235 c 0,2.589957 -1.22222,3.880085 -3.74428,3.880085 -1.71694,0 -2.91006,-0.727516 -3.25927,-1.940042 a 12.173765,12.173765 0 0 1 -0.28131,-3.336873 v -3.453275 c 0,-0.717816 0.23281,-1.115525 0.89242,-1.261028 v -0.126103 c -0.60141,0 -1.10582,0.0582 -1.55203,0.0582 a 15.646441,15.646441 0 0 1 -1.58113,-0.0582 v 0.126103 a 1.1155243,1.1155243 0 0 1 0.89242,1.261028 v 1.794539 c 0.0291,1.105824 0,2.056445 0,2.77426 z"
     style="fill:#010101;stroke-width:1"
     id="path26" />
  <path
     d="m 179.25465,34.352389 h 0.1649 a 4.6173007,4.6173007 0 0 1 3.51148,-1.940042 c 0.97002,0 0.97002,0.407408 0.97002,1.649036 v 4.190491 c 0,2.628757 0,3.65698 -1.10582,3.947986 v 0.155203 c 0.59171,0 1.15432,-0.0776 1.69753,-0.0776 a 18.255798,18.255798 0 0 1 1.94005,0.0776 V 42.19986 c -1.05733,-0.320107 -1.11553,-1.319229 -1.11553,-3.947986 v -4.151691 c 0,-1.280428 0.0582,-1.687836 1.09613,-1.687836 a 4.5784998,4.5784998 0 0 1 3.42417,1.940042 h 0.1455 l -0.71781,-2.250449 h -9.254 z"
     style="fill:#010101;stroke-width:1"
     id="path28" />
  <path
     d="m 193.81467,42.403564 v -0.116402 c -0.97002,-0.281306 -1.06703,-1.164025 -1.06703,-3.492076 v -1.687837 h 6.62525 v 1.687837 c 0,2.29895 0,3.259271 -1.05732,3.492076 v 0.116402 c 0.64021,0 1.19312,-0.0582 1.69753,-0.0582 0.50441,0 1.04763,0 1.79454,0.0582 v -0.116402 c -0.97002,-0.242505 -1.06702,-1.164025 -1.06702,-3.492076 v -5.344817 c 0,-0.737216 0.2813,-1.134925 0.89242,-1.241627 v -0.135803 h -3.15257 v 0.135803 c 0.62081,0.126103 0.89242,0.514111 0.89242,1.241627 v 3.259271 h -6.62525 v -3.259271 c 0,-0.727516 0.24251,-1.105824 0.89242,-1.241627 v -0.135803 h -3.14286 v 0.135803 c 0.67901,0.184304 0.89241,0.514111 0.89241,1.241627 v 5.383618 c 0,2.279549 0,3.23987 -1.07672,3.492076 v 0.155203 c 0.61111,0 1.17373,-0.0582 1.68784,-0.0582 0.51411,0 0.99912,-0.0485 1.81394,-0.0194 z"
     style="fill:#010101;stroke-width:1"
     id="path30" />
  <path
     d="m 207.16216,42.393864 c 0.72751,0 1.29983,-0.0679 1.70724,-0.0679 a 11.640254,11.640254 0 0 1 1.47443,0.0679 v -0.097 c -0.65962,-0.223105 -0.97002,-0.552912 -0.97002,-1.164025 a 6.8871502,6.8871502 0 0 1 0.74691,-2.231049 l 0.56262,-1.222227 h 4.08378 l 0.65962,1.387131 a 7.9638736,7.9638736 0 0 1 0.97002,2.444453 c 0,0.407409 -0.2037,0.620814 -0.70812,0.795417 v 0.097 c 0.97003,0 1.73634,0 2.25045,0 a 13.580296,13.580296 0 0 1 1.38713,0 v -0.097 c -0.77601,-0.349207 -1.42593,-1.561734 -2.40565,-3.453275 l -3.64728,-7.042354 h -0.1164 l -3.43388,6.964752 a 9.1764001,9.1764001 0 0 1 -2.53175,3.530877 z m 5.59702,-8.953295 1.83334,3.821883 h -3.63758 z"
     style="fill:#010101;stroke-width:1"
     id="path32" />
  <path
     d="m 223.23541,32.499648 h 0.51411 c 2.41535,0 4.09349,0.242506 5.49032,1.940043 h 0.1164 l -0.80511,-2.231049 h -8.7302 v 0.135803 c 0.62082,0.0776 0.89242,0.485011 0.89242,1.309529 v 5.267215 c 0,2.279549 0,3.21077 -1.05732,3.472675 v 0.0873 c 0.53351,0 1.06702,0 1.64904,0 0.58201,0 1.14462,0 1.94004,0 v -0.126103 c -1.01852,-0.271606 -1.09612,-1.086423 -1.09612,-3.385373 v -1.82364 h 2.72575 c 1.53264,0 2.41536,0.339507 2.91007,1.40653 h 0.097 v -3.191369 h -0.097 c -0.47531,1.115524 -1.33863,1.39683 -2.91007,1.39683 h -2.77426 v -4.258393 z"
     style="fill:#010101;stroke-width:1"
     id="path34" />
  <path
     d="m 233.06172,37.068448 c 2.25045,0 3.59878,0.194004 4.4136,2.492954 l 0.42681,1.202827 c 0.194,0.533511 0.38801,1.057323 0.63051,1.600535 h 2.26985 V 42.19016 c -0.97002,-0.223105 -1.07672,-1.493833 -1.81394,-3.094368 a 3.6181789,3.6181789 0 0 0 -3.24957,-2.085545 c 2.54146,-0.0679 3.88009,-0.970021 3.88009,-2.483254 0,-0.970021 -0.68872,-1.81394 -2.04675,-2.201948 a 16.829867,16.829867 0 0 0 -3.73458,-0.242506 h -4.08379 v 0.126103 c 0.84392,0.145503 0.87302,0.679015 0.87302,1.736338 v 4.850106 c 0,2.279549 0,3.21077 -1.05732,3.472675 v 0.126103 c 0.58201,0 1.15432,0 1.68783,0 0.53352,0 1.12523,0 1.80424,0 V 42.267761 C 232.0917,41.996156 231.985,41.152237 231.985,38.795086 v -1.687837 c 0.41711,-0.0097 0.78572,-0.0388 1.07672,-0.0388 z m -1.04762,-4.559099 h 1.94004 c 2.66756,0 4.04499,0.611113 4.04499,2.095245 0,1.998244 -1.94004,2.153447 -5.20901,2.153447 h -0.82452 z"
     style="fill:#010101;stroke-width:1"
     id="path36" />
  <path
     d="m 241.239,42.277462 v 0.126102 c 0.60141,0 1.17373,0 1.74604,0 0.57231,0 1.09612,0 1.94004,0 v -0.126102 c -0.97002,-0.261906 -1.12522,-1.057323 -1.12522,-3.385374 v -5.432119 c 0,-0.746916 0.2813,-1.134924 0.97002,-1.261027 v -0.135803 0 c -0.1164,0 -0.65962,0.0582 -1.65874,0.0582 -0.44621,0 -0.97002,0 -1.60053,-0.0582 v 0.135803 a 1.1058241,1.1058241 0 0 1 0.97002,1.241627 v 5.383617 c -0.1164,2.26985 -0.1746,3.220471 -1.24163,3.453276 z"
     style="fill:#010101;stroke-width:1"
     id="path38" />
  <path
     d="m 251.95774,32.160141 a 3.1719692,3.1719692 0 0 1 3.30777,2.696659 h 0.1455 l 0.56261,-1.940042 a 7.8571713,7.8571713 0 0 0 -4.20989,-1.173726 c -3.46297,0 -5.82013,2.172847 -5.82013,5.403018 0,3.23017 2.48326,5.441818 5.82013,5.441818 a 7.3624605,7.3624605 0 0 0 4.53,-1.41623 l -0.62081,-2.017644 h -0.14551 a 3.4532753,3.4532753 0 0 1 -3.56967,3.074967 c -2.50266,0 -4.3166,-1.940043 -4.3166,-4.966509 -0.0194,-3.249571 1.61994,-5.102311 4.3166,-5.102311 z"
     style="fill:#010101;stroke-width:1"
     id="path40" />
  <path
     d="m 265.00452,39.066692 a 7.7601692,7.7601692 0 0 1 0.97002,2.444453 c 0,0.407409 -0.2134,0.620814 -0.71781,0.795417 v 0.097 c 0.97002,0 1.74603,0 2.26984,0 0.36861,0 0.83422,0 1.36773,0 v -0.097 c -0.77601,-0.349207 -1.41623,-1.561734 -2.39595,-3.453275 l -3.65698,-7.042354 h -0.1067 l -3.44357,6.964752 a 9.2831024,9.2831024 0 0 1 -2.52206,3.530877 v 0.097 c 0.72752,0 1.29013,-0.0679 1.69754,-0.0679 a 11.843958,11.843958 0 0 1 1.48413,0.0679 v -0.097 c -0.67902,-0.223105 -0.97002,-0.552912 -0.97002,-1.164025 a 6.8871502,6.8871502 0 0 1 0.74691,-2.231049 l 0.55292,-1.222226 h 4.07409 z m -2.03704,-1.794539 h -2.49296 l 1.83334,-3.821884 1.84304,3.821884 z"
     style="fill:#010101;stroke-width:1"
     id="path42" />
  <path
     d="M 6.8721917,5.1353506 5.785768,8.4819236 5.9991727,8.5595253 A 6.790148,6.790148 0 0 1 11.217886,5.6494618 c 1.416231,0 1.503533,0.6014131 1.503533,2.4444533 v 6.2566379 c 0,3.880084 -0.0776,5.461219 -1.649036,5.878328 v 0.232805 c 0.873019,-0.0679 1.697537,-0.116403 2.522055,-0.116403 0.824518,0 1.649036,0 2.910064,0.116403 v -0.232805 c -1.571435,-0.46561 -1.668437,-1.940042 -1.668437,-5.878328 V 8.181217 c 0,-1.9400423 0.097,-2.5123548 1.639336,-2.5123548 a 6.790148,6.790148 0 0 1 5.082911,2.9100635 h 0.242505 L 20.724094,5.2420529 Z"
     style="fill:#010101;stroke-width:1"
     id="path44" />
  <path
     d="m 32.306146,4.65034 c -5.015009,0 -8.497385,3.4338749 -8.497385,8.022075 0,4.588201 3.559978,8.119078 8.594387,8.119078 a 8.2257794,8.2257794 0 0 0 8.516786,-7.925074 q 0,-0.097 0,-0.194004 C 40.881133,8.2200179 37.408457,4.65034 32.306146,4.65034 Z m 0,15.656143 c -3.724881,0 -6.101433,-2.75486 -6.101433,-7.634068 0,-4.8792065 2.28925,-7.5467646 6.072333,-7.5467646 3.783082,0 6.091732,2.706359 6.091732,7.5952656 0,4.888908 -2.483254,7.585567 -6.014131,7.585567 z"
     style="fill:#010101;stroke-width:1"
     id="path46" />
  <path
     d="m 55.790358,5.0577489 v 0.1746038 c 1.940043,0.8924195 1.940043,2.8033611 1.940043,6.6834453 v 2.434755 c 0,3.821883 -1.81394,5.723125 -5.587322,5.723125 -2.541456,0 -4.238993,-1.086424 -4.772504,-2.910064 a 18.129695,18.129695 0 0 1 -0.42681,-4.956809 V 7.0462923 c 0,-1.0864237 0.358908,-1.6684364 1.35803,-1.9400424 V 4.9122457 c -0.970021,0 -1.658736,0.097002 -2.337751,0.097002 -0.679015,0 -1.522933,0 -2.347451,-0.097002 v 0.1940042 a 1.6587362,1.6587362 0 0 1 1.338629,1.9400424 v 2.6578579 c 0,1.6393358 0,3.0167658 0,4.1225898 0,2.405654 0.135803,4.08379 1.484132,5.315717 1.134925,1.037923 3.016766,1.600535 5.558222,1.600535 4.335994,0 6.42154,-2.192248 6.42154,-6.586445 v -2.28925 c 0,-3.9770863 0.223104,-5.9268288 2.075845,-6.6834454 V 5.0092478 c -0.824518,0.058201 -1.649036,0.1067023 -2.473554,0.1067023 -0.562612,0.048501 -1.251327,0 -2.231049,-0.058201 z"
     style="fill:#010101;stroke-width:1"
     id="path48" />
  <path
     d="m 75.908596,15.563079 c -0.824518,-1.862442 -2.395952,-2.910064 -4.772504,-3.113769 3.763682,-0.0873 5.820127,-1.493833 5.820127,-3.6957805 0,-1.4938326 -1.028223,-2.6966588 -3.055567,-3.2592711 A 25.094447,25.094447 0 0 0 68.342431,5.1450508 H 62.2701 v 0.184304 c 1.251327,0.2134047 1.290128,0.9700212 1.290128,2.5899565 v 7.1975577 c 0,3.414475 0,4.772505 -1.571435,5.179913 v 0.184304 c 0.873019,0 1.716938,-0.0679 2.522055,-0.0679 0.805118,0 1.668432,0 2.677254,0.0679 V 20.296782 C 65.70397,19.899074 65.597267,18.628346 65.597267,15.116869 v -2.483255 c 0.582013,0 1.076724,-0.0679 1.542334,-0.0679 3.336877,0 5.364221,0.281306 6.576747,3.715182 l 0.630514,1.775139 c 0.281306,0.805117 0.582013,1.571434 0.970021,2.386252 h 3.307772 V 20.17068 c -1.39683,-0.329808 -1.629635,-2.231049 -2.716059,-4.607601 z m -9.147303,-3.550278 -1.222222,-0.0582 V 5.7755646 h 2.910062 c 3.967387,0 6.023832,0.9700211 6.023832,3.1331683 0.0291,2.8712621 -2.890663,3.1040681 -7.711672,3.1040681 z"
     style="fill:#010101;stroke-width:1"
     id="path50" />
  <path
     d="M 84.124676,15.233272 V 7.1141937 a 1.6684364,1.6684364 0 0 1 1.416231,-1.9400423 v -0.1940042 0 c -0.164904,0 -0.970021,0.097002 -2.473554,0.097002 -0.679015,0 -1.484132,0 -2.405655,-0.097002 v 0.1940042 a 1.6587362,1.6587362 0 0 1 1.425934,1.8624406 v 8.012376 c 0,3.482376 -0.106703,4.850106 -1.67814,5.179913 v 0.184304 c 0.970024,0 1.746041,-0.0679 2.61906,-0.0679 0.688715,0 1.629636,0 2.910064,0.0679 v -0.184304 c -1.658737,-0.349208 -1.81394,-1.542334 -1.81394,-4.995609 z"
     style="fill:#010101;stroke-width:1"
     id="path52" />
  <path
     d="M 97.656467,11.818796 C 95.609723,11.459888 93.834584,11.391987 92.534759,10.761473 A 2.3571514,2.3571514 0 0 1 91.050627,8.5595253 c 0,-1.8139396 1.794539,-3.3174724 4.432993,-3.3174724 2.638457,0 4.335994,1.3192288 4.7046,3.5017764 h 0.21341 l 0.87302,-2.7936609 A 13.357191,13.357191 0 0 0 95.551521,4.7085413 c -4.161387,0 -6.683442,2.1340465 -6.683442,4.5105983 0,2.0564444 1.425932,3.3368724 4.326291,3.9479864 1.940042,0.426809 3.579378,0.368608 4.772504,0.970021 a 2.5123548,2.5123548 0 0 1 1.649036,2.473555 c 0,2.017644 -1.940042,3.744282 -4.772504,3.744282 a 5.5679214,5.5679214 0 0 1 -5.723121,-4.384496 h -0.174604 l -0.970021,3.404774 a 14.375713,14.375713 0 0 0 6.867746,1.532634 c 4.355395,0 7.061754,-2.425053 7.061754,-5.267215 -0.01,-2.134048 -1.42593,-3.327174 -4.248693,-3.821885 z"
     style="fill:#010101;stroke-width:1"
     id="path54" />
  <path
     d="m 108.89902,20.442286 v -0.164904 c -1.78484,-0.824518 -1.99825,-2.696659 -1.99825,-6.295439 V 6.8910889 c 1.63934,3.2301701 3.93829,7.7601701 6.48944,13.9295051 h 0.16491 l 6.38274,-14.472717 v 8.730192 c 0,3.453275 -0.12611,4.850105 -1.60054,5.179913 v 0.184304 c 0.97002,0 1.73634,-0.0679 2.49296,-0.0679 0.75661,0 1.55203,0 2.66755,0.0679 v -0.184304 c -1.43563,-0.378309 -1.60053,-1.590835 -1.60053,-5.01501 V 8.181217 c 0,-1.8624406 0.194,-2.7160592 1.34833,-2.9100635 V 5.0771493 c -0.70812,0 -1.39683,0 -2.00794,0 -0.36861,0 -0.85362,0 -1.41624,0 l -5.39331,12.2513687 c -2.29895,-4.190493 -4.2196,-8.2257809 -5.94623,-12.2028676 h -1.94005 -1.84304 v 0.1940042 c 1.37743,0.4947108 1.61024,1.3192288 1.61024,2.9585645 v 6.0723339 c 0,3.356273 -0.24251,5.170213 -2.01764,5.946229 v 0.164904 c 0.97002,0 1.73633,-0.0873 2.44445,-0.0873 0.70811,0 1.29983,0.0291 2.16315,0.0679 z"
     style="fill:#010101;stroke-width:1"
     id="path56" />
  <path
     d="m 143.80038,20.878795 a 10.09792,10.09792 0 0 0 6.56704,-2.163147 v -4.074089 c 0,-1.134926 0.30071,-1.464733 1.47443,-1.78484 v -0.223105 c -1.14462,0 -2.16314,0.097 -3.00706,0.097 a 30.497465,30.497465 0 0 1 -3.11377,-0.097 v 0.223105 c 2.50265,0.213405 2.66756,0.970021 2.66756,3.404775 0,2.793661 -0.82452,4.074089 -4.2584,4.074089 -4.28749,0 -6.73194,-2.75486 -6.73194,-7.585566 0,-4.8307057 2.44445,-7.5661654 6.61554,-7.5661654 2.91007,0 4.85011,1.464732 5.45152,4.0643887 h 0.1746 l 0.97003,-2.6772584 a 12.484172,12.484172 0 0 0 -6.68345,-1.9400423 c -5.31572,0 -8.9824,3.2010698 -8.9824,8.0123744 -0.0582,5.053812 3.63758,8.235481 8.8563,8.235481 z"
     style="fill:#010101;stroke-width:1"
     id="path58" />
  <path
     d="m 158.88421,20.442286 v -0.184304 c -1.48414,-0.397709 -1.60054,-1.668437 -1.60054,-5.179913 v -2.473556 c 0.59171,0 1.08642,-0.0679 1.55204,-0.0679 3.33687,0 5.36421,0.281306 6.56704,3.715182 l 0.64021,1.775139 c 0.28131,0.805117 0.58201,1.571434 0.97002,2.386252 h 3.30778 V 20.17068 c -1.36773,-0.320107 -1.59084,-2.231049 -2.67726,-4.607601 -0.82452,-1.862442 -2.39596,-2.910064 -4.85011,-3.113769 3.76368,-0.0873 5.82013,-1.493833 5.82013,-3.6957805 0,-1.4938326 -1.02822,-2.6966588 -3.06527,-3.2592711 a 25.094447,25.094447 0 0 0 -5.54852,-0.3492076 h -6.07233 v 0.184304 c 1.25133,0.2134047 1.29013,0.9700212 1.29013,2.5899565 v 7.1975577 c 0,3.414475 0,4.772505 -1.57144,5.179913 v 0.184304 c 0.87302,0 1.70724,-0.0679 2.51236,-0.0679 0.80511,0 1.70723,-0.0097 2.72576,0.0291 z M 157.28367,5.7755646 h 2.91006 c 3.96739,0 6.02384,0.9700211 6.02384,3.1331683 0,2.9682651 -2.91007,3.2010701 -7.76017,3.2010701 l -1.22223,-0.0582 z"
     style="fill:#010101;stroke-width:1"
     id="path60" />
  <path
     d="m 175.72377,20.442286 v -0.135803 c -0.97002,-0.320107 -1.43563,-0.824518 -1.43563,-1.716938 a 9.8360145,9.8360145 0 0 1 1.09613,-3.336873 l 0.82451,-1.81394 c 0.52382,0 0.97002,0 1.46474,0 h 3.23017 c 0.3201,0 0.82451,0 1.43563,0 l 0.97002,2.056446 a 12.037962,12.037962 0 0 1 1.38713,3.637579 c 0,0.620814 -0.30071,0.970021 -1.05732,1.183426 v 0.135803 c 1.47443,0 2.59965,-0.0679 3.36597,-0.0679 0.56261,0 1.25133,0 2.04674,0.0679 v -0.135803 c -1.15432,-0.514111 -2.10494,-2.328051 -3.57937,-5.150812 L 180.00157,4.65034 h -0.15521 l -5.11201,10.369527 c -1.41623,2.910064 -2.74516,4.617301 -3.76368,5.247815 v 0.135803 c 1.08642,-0.0679 1.94004,-0.0873 2.55116,-0.0873 0.61111,0 1.46473,0.0582 2.20194,0.126103 z m 3.57938,-13.3571929 2.72576,5.7231249 h -5.47092 z"
     style="fill:#010101;stroke-width:1"
     id="path62" />
  <path
     d="m 197.84996,20.500487 c 3.01676,0 5.16051,-0.514111 6.89685,-2.143747 a 7.9250728,7.9250728 0 0 0 2.44445,-5.92683 6.6834457,6.6834457 0 0 0 -2.91006,-5.8201273 c -1.84304,-1.2707277 -3.97709,-1.5520338 -6.79015,-1.5520338 -1.12523,0 -2.30865,0 -3.50178,0 H 190.827 v 0.184304 c 0.97002,0.1746038 1.29983,0.7566165 1.29983,1.9400423 v 8.1093778 c 0,3.171969 0,4.491198 -1.57143,4.850106 v 0.184304 c 1.23192,-0.0679 2.30865,-0.0873 3.13316,-0.0873 1.47444,0.116403 2.90037,0.261906 4.1614,0.261906 z M 194.13477,5.7755646 c 0.97003,-0.067901 1.94005,-0.097002 2.76456,-0.097002 5.32542,0 7.84748,1.9400423 7.84748,7.0326534 0,4.656103 -2.55116,7.29456 -7.11026,7.29456 -2.04674,0 -3.03617,-0.145503 -3.30777,-1.319229 a 19.090016,19.090016 0 0 1 -0.19401,-3.559977 z"
     style="fill:#010101;stroke-width:1"
     id="path64" />
  <path
     d="m 215.41704,20.442286 v -0.184304 c -1.52293,-0.378309 -1.69754,-1.571435 -1.69754,-5.03441 V 7.1044935 a 1.6296355,1.6296355 0 0 1 1.31923,-1.9400423 h 0.097 v -0.1940042 0 c -0.1649,0 -0.97002,0.097002 -2.48325,0.097002 -0.66932,0 -1.48413,0 -2.39595,-0.097002 v 0.1940042 a 1.6587362,1.6587362 0 0 1 1.41623,1.8721408 v 8.002676 c 0,3.482376 -0.097,4.850106 -1.66844,5.179913 v 0.184304 c 0.89242,0 1.74604,-0.0679 2.61906,-0.0679 0.65961,0.0388 1.58113,0.0679 2.79366,0.106703 z"
     style="fill:#010101;stroke-width:1"
     id="path66" />
  <path
     d="m 220.41265,20.374384 h 1.41623 V 20.17068 c -1.99825,-0.591713 -1.99825,-3.074967 -1.99825,-7.430364 V 6.8619882 c 4.1614,4.5396988 8.41979,9.0114978 12.40658,13.9586058 h 0.2134 v -8.904796 c 0,-3.9770863 0.1358,-5.9462292 2.04674,-6.6834453 V 5.0674491 c -0.85361,0 -1.66843,0.097002 -2.47355,0.097002 -0.59171,0 -1.29983,0 -2.13405,-0.097002 v 0.1649036 c 1.86244,0.873019 1.94005,2.6190571 1.94005,6.1596343 v 5.199315 A 143.56313,143.56313 0 0 1 221.15956,5.1353506 h -1.71693 c -0.30071,0 -0.97002,0 -1.72664,0 v 0.184304 c 1.53263,0.5917129 1.55203,1.4744322 1.55203,2.9682647 V 13.38053 c 0,4.015889 -0.2231,6.305139 -2.04674,6.79015 v 0.194004 h 3.23017 z"
     style="fill:#010101;stroke-width:1"
     id="path68" />
  <path
     d="m 245.46829,20.878795 a 10.07852,10.07852 0 0 0 6.56705,-2.163147 v -4.074089 c 0,-1.134926 0.3007,-1.464733 1.47443,-1.78484 v -0.223105 c -1.14463,0 -2.15345,0.097 -3.00707,0.097 a 30.400463,30.400463 0 0 1 -3.11376,-0.097 v 0.223105 c 2.49295,0.213405 2.66755,0.970021 2.66755,3.404775 0,2.793661 -0.82451,4.074089 -4.25839,4.074089 -4.29719,0 -6.68344,-2.75486 -6.68344,-7.585566 0,-4.8307057 2.43475,-7.5661654 6.60584,-7.5661654 2.91006,0 4.85011,1.464732 5.46122,4.0643887 h 0.1746 l 0.97002,-2.6772584 A 12.532673,12.532673 0 0 0 245.6429,4.6309396 c -5.32542,0 -8.9921,3.2010698 -8.9921,8.0123744 -0.1164,5.053812 3.56968,8.235481 8.81749,8.235481 z"
     style="fill:#010101;stroke-width:1"
     id="path70" />
  <path
     d="m 273.1527,20.839994 a 10.854537,10.854537 0 0 0 6.74164,-2.124346 l -0.97002,-2.977965 h -0.2134 a 5.1508123,5.1508123 0 0 1 -5.31572,4.559099 c -3.72488,0 -6.42154,-2.910063 -6.42154,-7.391562 0,-4.9471079 2.57056,-7.7116682 6.45064,-7.7116682 2.61906,0 4.19049,1.2901282 4.93741,4.0158876 h 0.22311 L 279.40933,6.299376 A 11.640254,11.640254 0 0 0 273.1527,4.5630381 c -5.15081,0 -8.65259,3.2495709 -8.65259,8.0220749 0,4.772505 3.70548,8.254881 8.65259,8.254881 z"
     style="fill:#010101;stroke-width:1"
     id="path72" />
  <path
     d="m 291.28239,4.65034 c -5.02471,0 -8.49738,3.4338749 -8.49738,8.022075 0,4.588201 3.55028,8.119078 8.54588,8.119078 a 8.2160791,8.2160791 0 0 0 8.50709,-7.915374 q 0,-0.106702 0,-0.203704 C 299.87678,8.2200179 296.4138,4.65034 291.28239,4.65034 Z m 0,15.656143 c -3.72488,0 -6.10143,-2.75486 -6.10143,-7.634068 0,-4.8792065 2.27955,-7.5467646 6.07233,-7.5467646 3.79278,0 6.07233,2.6772584 6.07233,7.5661646 0,4.888908 -2.42505,7.614668 -5.95593,7.614668 z"
     style="fill:#010101;stroke-width:1"
     id="path74" />
  <path
     d="m 314.80541,5.0577489 v 0.1746038 c 1.94004,0.8924195 1.94004,2.8033611 1.94004,6.6834453 v 2.434755 c 0,3.821883 -1.81394,5.723125 -5.58732,5.723125 -2.54146,0 -4.239,-1.086424 -4.85011,-2.910064 a 18.129695,18.129695 0 0 1 -0.42681,-4.956809 V 7.0462923 c 0,-1.0864237 0.33951,-1.6684364 1.33863,-1.9400424 V 4.9122457 c -0.89242,0 -1.63934,0.097002 -2.32805,0.097002 -0.68872,0 -1.53263,0 -2.35715,-0.097002 v 0.1940042 a 1.6587362,1.6587362 0 0 1 1.35803,1.9400424 v 2.6578579 c 0,1.6393358 -0.0582,3.0167658 -0.0582,4.1225898 0,2.405654 0.1455,4.08379 1.48413,5.315717 1.12522,1.037923 3.00706,1.600535 5.54852,1.600535 4.34569,0 6.43124,-2.192248 6.43124,-6.586445 v -2.28925 c 0,-3.9770863 0.2134,-5.9268288 2.07585,-6.6834454 V 5.0092478 c -0.82452,0.058201 -1.64904,0.1067023 -2.47356,0.1067023 z"
     style="fill:#010101;stroke-width:1"
     id="path76" />
  <path
     d="m 333.19701,5.0674491 v 0.1649036 c 1.85274,0.873019 1.94004,2.6190571 1.94004,6.1596343 v 5.199315 A 147.15221,147.15221 0 0 1 324.46682,5.1353506 h -1.71694 c -0.31041,0 -0.97002,0 -1.71694,0 v 0.184304 c 1.53263,0.5917129 1.55204,1.4744322 1.55204,2.9682647 V 13.38053 c 0,4.015889 -0.24251,6.305139 -2.05645,6.79015 v 0.194004 h 4.6367 V 20.17068 c -1.99824,-0.591713 -1.99824,-3.074967 -1.99824,-7.430364 V 6.8619882 c 4.16139,4.5396988 8.41978,9.0114978 12.40657,13.9586058 h 0.2231 v -8.904796 c 0,-3.9770863 0.14551,-5.9462292 2.04675,-6.6834453 V 5.0674491 c -0.84392,0 -1.66844,0.097002 -2.46386,0.097002 -0.63051,0 -1.32892,-0.048501 -2.18254,-0.097002 z"
     style="fill:#010101;stroke-width:1"
     id="path78" />
  <path
     d="m 354.11066,15.747383 a 5.1508123,5.1508123 0 0 1 -5.31571,4.5591 c -3.71518,0 -6.41184,-2.910064 -6.41184,-7.391563 0,-4.9471076 2.56085,-7.711668 6.44094,-7.711668 2.61905,0 4.19049,1.2901282 4.94711,4.0158876 h 0.2522 l 0.83422,-2.9100634 a 11.708155,11.708155 0 0 0 -6.26634,-1.7363379 c -5.15081,0 -8.66229,3.2495709 -8.66229,8.0220747 0,4.772506 3.70548,8.119079 8.59439,8.119079 a 10.912738,10.912738 0 0 0 6.79015,-2.124347 l -0.97002,-2.977965 z"
     style="fill:#010101;stroke-width:1"
     id="path80" />
  <path
     d="M 361.46342,15.233272 V 7.1141937 a 1.6684364,1.6684364 0 0 1 1.41623,-1.9400423 v -0.1940042 0 c -0.1746,0 -0.97002,0.097002 -2.47355,0.097002 -0.67901,0 -1.48413,0 -2.40565,-0.097002 v 0.1940042 a 1.649036,1.649036 0 0 1 1.41623,1.8527404 v 8.0220762 c 0,3.482376 -0.097,4.850106 -1.66844,5.179913 v 0.184304 c 0.89242,0 1.74604,-0.0679 2.61906,-0.0679 0.68871,0 1.61993,0 2.91006,0.0679 v -0.184304 c -1.64903,-0.349208 -1.81394,-1.542334 -1.81394,-4.995609 z"
     style="fill:#010101;stroke-width:1"
     id="path82" />
  <path
     d="m 379.97143,16.756205 c -1.81394,2.531755 -4.3069,3.094368 -7.90568,3.094368 -1.94004,0 -2.70635,-0.0679 -2.91006,-1.154325 0,-0.126103 -0.1164,-1.33863 -0.1164,-3.598779 V 7.1141937 c 0,-1.0767234 0.3007,-1.6684364 1.31923,-1.9400423 V 4.9801472 c -0.90212,0 -1.69754,0.097002 -2.40566,0.097002 -0.70811,0 -1.52293,0 -2.29895,-0.097002 v 0.1940042 a 1.649036,1.649036 0 0 1 1.33863,1.9400423 v 7.9832753 c 0,3.404774 0,4.850106 -1.57143,5.121712 v 0.194004 h 13.45419 l 1.23193,-3.589078 z"
     style="fill:#010101;stroke-width:1"
     id="path84" />
  <path
     d="m 113.17681,67.498012 c -6.45064,0 -8.78839,5.723124 -8.78839,10.068821 0,3.880085 2.22135,6.790148 6.27603,6.945352 1.33863,1.940042 2.91007,4.035287 3.74429,4.520298 0.75661,-0.203704 1.70723,-0.485011 2.28925,-0.698415 A 16.742565,16.742565 0 0 1 112.7403,84.30848 c 5.22841,-0.970021 6.79015,-6.43124 6.79015,-9.865115 0.01,-4.559101 -2.78396,-6.945353 -6.35364,-6.945353 z m -2.11465,15.345736 c -2.62875,0 -4.5494,-1.940042 -4.5494,-5.480619 0,-3.54058 1.80424,-8.109379 6.35364,-8.109379 2.55116,0 4.5882,1.746038 4.5882,5.393319 -0.01,3.142869 -1.38713,8.196679 -6.40214,8.196679 z"
     style="fill:#010101;stroke-width:1"
     id="path86" />
  <path
     d="m 129.56047,75.743193 -0.55292,3.821884 c -1.69753,2.405652 -2.91006,3.278671 -4.03528,3.278671 -1.12523,0 -1.55204,-0.504411 -1.55204,-1.940042 0,-0.378308 0.17461,-1.794539 0.27161,-2.454154 l 0.41711,-2.76456 c 0.1843,-1.241627 0.291,-1.940044 0.47531,-3.094369 h -1.94004 c -0.0679,0.970021 -0.27161,2.134048 -0.40741,3.171971 l -0.43651,3.162269 a 23.280508,23.280508 0 0 0 -0.27161,2.434753 c 0,2.134046 1.16403,3.21077 2.81306,3.21077 1.39683,0 2.67726,-0.659615 4.5106,-3.142869 -0.1067,0.90212 -0.2522,2.357152 -0.2522,2.910064 h 1.94004 a 40.207377,40.207377 0 0 1 0.45591,-5.150813 c 0.37831,-2.910063 0.67901,-4.98591 0.97002,-6.547644 h -1.94004 c -0.14551,0.882719 -0.31041,2.075847 -0.46561,3.104069 z"
     style="fill:#010101;stroke-width:1"
     id="path88" />
  <path
     d="m 142.96616,81.417817 a 66.03904,66.03904 0 0 1 1.36773,-8.982398 c -0.43651,0.0679 -1.01852,0.184304 -1.40653,0.232805 a 6.2178356,6.2178356 0 0 0 -2.22135,-0.407409 c -3.82188,0 -6.87745,3.938288 -6.87745,8.419786 0,2.434753 1.06702,3.821883 3.01677,3.821883 1.39683,0 2.69665,-0.853618 4.40389,-3.23987 -0.2037,2.483254 0.56261,3.23987 1.94004,3.23987 a 3.9770867,3.9770867 0 0 0 1.50354,-0.446209 l 0.1552,-1.251328 a 2.9100635,2.9100635 0 0 1 -0.83422,0.271606 c -0.65961,0.0097 -1.04762,-0.339507 -1.04762,-1.658736 z m -1.65874,-2.037044 c -1.60053,2.279549 -2.95856,3.404774 -3.97708,3.404774 -1.01853,0 -1.61024,-0.805118 -1.61024,-2.580256 0,-3.327173 2.20195,-6.363341 4.6464,-6.363341 a 3.1428685,3.1428685 0 0 1 1.79454,0.426809 c -0.1843,1.057325 -0.64991,3.773384 -0.85362,5.102313 z"
     style="fill:#010101;stroke-width:1"
     id="path90" />
  <path
     d="m 147.91327,75.665592 c -0.65962,4.685202 -1.09613,7.634066 -1.27073,8.594387 h 1.99824 c 0.0776,-0.853619 0.53351,-4.355395 1.24163,-9.215201 0.61111,-4.229294 0.90212,-6.198437 1.24163,-8.468287 h -1.94005 c -0.2813,1.988544 -0.68871,4.811305 -1.27072,9.089101 z"
     style="fill:#010101;stroke-width:1"
     id="path92" />
  <path
     d="m 155.76074,67.43011 a 1.1349247,1.1349247 0 0 0 -1.24163,1.154325 1.0767235,1.0767235 0 0 0 1.07672,1.086424 h 0.10671 a 1.1640254,1.1640254 0 0 0 1.24162,-1.086424 c 0,0 0,-0.0485 0,-0.0776 a 1.0573231,1.0573231 0 0 0 -1.03792,-1.076724 z"
     style="fill:#010101;stroke-width:1"
     id="path94" />
  <path
     d="m 153.28718,78.827861 c -0.43651,2.968264 -0.64991,4.520298 -0.80511,5.403017 h 1.94004 c 0.0679,-0.805117 0.44621,-3.385373 0.82452,-6.033531 0.3395,-2.386252 0.56261,-3.938288 0.83421,-5.723127 l -2.00794,0.097 c -0.097,1.164026 -0.32011,3.210772 -0.78572,6.256639 z"
     style="fill:#010101;stroke-width:1"
     id="path96" />
  <path
     d="m 160.63994,81.670023 a 27.781406,27.781406 0 0 1 0.35891,-3.065267 c 0.25221,-1.619936 0.53351,-3.356273 0.76632,-4.772506 h 2.91006 l 0.35891,-1.319229 h -3.07497 l 0.51411,-3.162269 -2.01764,0.679015 -0.43651,2.522055 h -1.60053 l -0.49471,1.319229 h 1.94004 c -0.25221,1.581136 -0.53351,3.695782 -0.78572,5.073212 a 29.323739,29.323739 0 0 0 -0.37831,3.142869 c 0,1.716937 0.78572,2.434753 2.16315,2.434753 a 4.7725041,4.7725041 0 0 0 2.58026,-0.970021 l 0.0679,-1.552034 a 4.5202986,4.5202986 0 0 1 -1.94005,0.970021 c -0.58201,-0.0776 -0.93122,-0.329807 -0.93122,-1.299828 z"
     style="fill:#010101;stroke-width:1"
     id="path98" />
  <path
     d="m 169.98125,81.728224 a 7.0229531,7.0229531 0 0 0 -0.48501,0.892419 4.8501057,4.8501057 0 0 0 0,-0.834218 c -0.20371,-1.338629 -0.48501,-3.307772 -0.83422,-5.102311 -0.60141,-3.13317 -1.19313,-3.938288 -1.55203,-4.384498 l -1.99825,0.339508 c 0.45591,0.630513 0.97002,1.36773 1.77514,4.772506 0.50441,2.260149 0.97002,5.07321 1.33863,7.071454 a 24.813141,24.813141 0 0 1 -4.3845,5.635823 l 2.26015,0.300706 a 57.231248,57.231248 0 0 0 5.62613,-8.594387 c 2.66755,-4.772504 3.71518,-7.304259 3.92858,-9.263704 h -1.94004 c -0.1843,1.571434 -0.94092,3.986789 -3.73458,9.166702 z"
     style="fill:#010101;stroke-width:1"
     id="path100" />
  <path
     d="m 183.55184,78.827861 c -0.43651,2.968264 -0.65961,4.520298 -0.80511,5.403017 h 1.94004 c 0.0776,-0.805117 0.46561,-3.385373 0.83422,-6.033531 0.3395,-2.386252 0.56261,-3.938288 0.83422,-5.723127 l -1.94005,0.116403 c -0.1455,1.144625 -0.39771,3.191371 -0.86332,6.237238 z"
     style="fill:#010101;stroke-width:1"
     id="path102" />
  <path
     d="m 186.006,67.43011 a 1.1349247,1.1349247 0 0 0 -1.23193,1.154325 1.0767235,1.0767235 0 0 0 1.07672,1.086424 h 0.10671 a 1.1737256,1.1737256 0 0 0 1.25132,-1.096124 c 0,0 0,0 0,-0.0679 A 1.0670233,1.0670233 0 0 0 186.1515,67.43011 Z"
     style="fill:#010101;stroke-width:1"
     id="path104" />
  <path
     d="m 196.46283,72.260815 c -1.30953,0 -2.66756,0.300707 -4.85011,3.171972 a 12.998283,12.998283 0 0 0 0.1164,-2.910066 l -1.94004,0.194004 c 0.1649,0.814818 0.097,2.308653 -0.32011,5.606725 -0.2522,1.940042 -0.55291,3.986786 -0.89242,5.955929 h 1.94005 c 0.0582,-0.339507 0.97002,-7.032653 0.97002,-7.032653 2.08554,-2.910065 3.30777,-3.278673 4.20989,-3.278673 0.90212,0 1.41623,0.611115 1.41623,2.075847 a 18.430402,18.430402 0 0 1 -0.194,1.940042 l -1.00883,6.208136 h 1.94005 c 0.1164,-1.270728 0.3007,-2.386253 0.48501,-3.705481 l 0.40741,-2.667558 a 21.340465,21.340465 0 0 0 0.2231,-2.560856 c 0.0582,-1.978845 -0.84392,-2.997368 -2.50265,-2.997368 z"
     style="fill:#010101;stroke-width:1"
     id="path106" />
  <path
     d="m 219.96644,67.808418 h -12.03796 l -0.29101,1.716938 h 4.98591 l -1.18343,8.439186 c -0.39771,2.803361 -0.75661,4.966508 -0.97002,6.324538 h 2.16315 c 0.1552,-1.387131 0.46561,-3.65698 0.83422,-6.256637 l 1.19312,-8.507087 h 5.11201 z"
     style="fill:#010101;stroke-width:1"
     id="path108" />
  <path
     d="m 223.45851,72.260815 c -3.22047,0 -6.14023,2.987668 -6.14023,7.634069 0,2.716059 1.64904,4.568799 4.18079,4.568799 3.60848,0 6.06263,-3.23987 6.06263,-7.634066 0,-2.842164 -1.45503,-4.568802 -4.10319,-4.568802 z m -1.68783,10.767237 c -1.57144,0 -2.55116,-1.164025 -2.55116,-3.395074 0,-3.472676 1.94004,-5.820129 3.96739,-5.820129 1.69754,0 2.47355,1.387132 2.47355,3.521179 0,3.288372 -1.89154,5.694024 -3.89948,5.694024 z"
     style="fill:#010101;stroke-width:1"
     id="path110" />
  <path
     d="m 237.83423,75.743193 -0.57231,3.821884 c -1.69754,2.405652 -2.91007,3.278671 -4.02559,3.278671 -1.11553,0 -1.55204,-0.504411 -1.55204,-1.940042 0,-0.378308 0.17461,-1.794539 0.27161,-2.454154 l 0.40741,-2.76456 c 0.194,-1.241627 0.3007,-1.940044 0.48501,-3.094369 h -1.94004 c -0.0679,0.970021 -0.27161,2.134048 -0.40741,3.171971 l -0.43651,3.162269 a 23.280508,23.280508 0 0 0 -0.20371,2.357151 c 0,2.134047 1.16403,3.21077 2.91007,3.21077 1.38713,0 2.66756,-0.659614 4.4912,-3.142868 -0.097,0.902119 -0.24251,2.357151 -0.24251,2.910063 h 1.94004 a 44.93138,44.93138 0 0 1 0.46561,-5.150812 c 0.37831,-2.910064 0.68872,-4.985911 0.97002,-6.547645 h -1.94004 c -0.28131,0.960321 -0.45591,2.153449 -0.62081,3.181671 z"
     style="fill:#010101;stroke-width:1"
     id="path112" />
  <path
     d="m 245.27429,75.558889 a 21.524769,21.524769 0 0 0 0.25221,-3.055568 l -1.94005,0.116402 a 29.275238,29.275238 0 0 1 -0.46561,5.936532 c -0.291,2.143746 -0.55291,3.880084 -0.85362,5.664923 h 1.94005 c 0.1261,-1.251327 0.2716,-2.454153 0.41711,-3.521177 l 0.3977,-2.910063 c 1.20283,-2.774261 2.33776,-3.656982 3.43388,-3.656982 a 1.5617341,1.5617341 0 0 1 0.97002,0.271608 l 0.43651,-1.940044 a 2.9100635,2.9100635 0 0 0 -0.89242,-0.145503 c -1.30953,0.0679 -2.54146,0.92152 -3.69578,3.239872 z"
     style="fill:#010101;stroke-width:1"
     id="path114" />
  <path
     d="m 250.98771,78.827861 c -0.43651,2.968264 -0.65961,4.520298 -0.80511,5.403017 h 1.94004 c 0.0776,-0.805117 0.46561,-3.385373 0.83422,-6.033531 0.3395,-2.386252 0.56261,-3.938288 0.83422,-5.723127 l -1.99825,0.097 c -0.1164,1.164026 -0.33951,3.210772 -0.80512,6.256639 z"
     style="fill:#010101;stroke-width:1"
     id="path116" />
  <path
     d="m 253.44187,67.43011 a 1.1349247,1.1349247 0 0 0 -1.23193,1.154325 1.0767235,1.0767235 0 0 0 1.07672,1.086424 h 0.10671 a 1.1737256,1.1737256 0 0 0 1.25132,-1.096124 c 0,0 0,0 0,-0.0679 a 1.0670233,1.0670233 0 0 0 -1.05732,-1.076724 z"
     style="fill:#010101;stroke-width:1"
     id="path118" />
  <path
     d="m 256.26463,75.743193 c 0,1.455032 0.70811,2.26015 2.13405,3.346573 1.22222,0.970021 1.63933,1.435632 1.63933,2.26015 0,1.115524 -0.79542,1.707237 -2.02734,1.707237 a 3.5502774,3.5502774 0 0 1 -2.62876,-1.202826 l -0.30071,1.83334 a 5.4224182,5.4224182 0 0 0 2.74516,0.805117 c 2.91007,0 4.11289,-1.697537 4.11289,-3.385374 0,-1.309528 -0.68871,-2.134046 -2.00794,-3.142868 -1.31923,-1.008822 -1.79454,-1.455032 -1.79454,-2.473554 a 1.7654385,1.7654385 0 0 1 1.75574,-1.775141 h 0.2522 a 3.4726757,3.4726757 0 0 1 2.28925,0.892422 l 0.31041,-1.784841 a 5.9268292,5.9268292 0 0 0 -2.42505,-0.582013 c -2.68696,0.0194 -4.05469,1.668436 -4.05469,3.501778 z"
     style="fill:#010101;stroke-width:1"
     id="path120" />
  <path
     d="m 278.87582,72.260815 c -1.41623,0 -2.91006,0.756617 -4.6658,3.142871 0.0679,-1.852742 -0.80512,-3.142871 -2.54145,-3.142871 -1.53264,0 -2.91007,0.970022 -4.5882,3.08467 a 13.978005,13.978005 0 0 0 0.1455,-2.910066 l -1.94004,0.116403 a 26.442777,26.442777 0 0 1 -0.36861,5.820129 c -0.27161,1.998243 -0.51411,3.821883 -0.85362,5.723124 h 1.94004 c 0.24251,-1.804239 0.68872,-5.325416 0.97002,-7.129655 1.66844,-2.434753 2.91007,-3.142871 3.88009,-3.142871 0.97002,0 1.38713,0.669317 1.38713,2.289252 a 12.280468,12.280468 0 0 1 -0.1164,1.532634 l -0.97003,6.44094 h 1.94005 c 0.2716,-1.85274 0.72751,-5.179913 0.97002,-6.974452 1.68783,-2.444453 2.99736,-3.336875 3.93828,-3.336875 0.94092,0 1.50354,0.688717 1.50354,2.18255 0,0.310407 -0.0679,1.096124 -0.13581,1.600535 l -1.00882,6.634945 h 1.94004 c 0.10671,-1.202827 0.30071,-2.502655 0.48501,-3.880085 l 0.48501,-3.346573 a 10.951539,10.951539 0 0 0 0.10671,-1.464732 c 0.1261,-1.978845 -0.59172,-3.239873 -2.50266,-3.239873 z"
     style="fill:#010101;stroke-width:1"
     id="path122" />
  <path
     id="rect124"
     style="fill:#010101;stroke-width:1"
     d="m 129.06576,55.02353 h 127.76148 v 2.085545 H 129.06576 Z" />
  <path
     id="polygon126"
     style="fill:#ffffff;stroke-width:1"
     d="m 271.07685,95.900233 v 0 l -6.42154,22.242587 -26.28757,-1.38713 22.42689,12.51327 -10.73814,22.9022 21.11736,-14.18171 20.89426,14.19141 -10.50533,-22.9119 22.10678,-12.48417 -26.16147,1.37743 z" />
  <path
     id="polygon128"
     style="fill:#163d8a;fill-opacity:1;stroke-width:1"
     d="m 272.02747,121.00438 v 0 l 17.50888,28.22762 0.0291,0.0194 -9.37041,-20.41895 19.11912,-10.79633 -22.58209,1.20282 -5.66493,-19.575025 z" />
  <path
     id="polygon130"
     style="fill:#e30713;fill-opacity:1;stroke-width:1"
     d="m 265.39253,119.22924 v 0 l -22.6597,-1.20282 19.37133,10.80603 -9.56441,20.40925 0.0582,-0.0388 17.50888,-28.19851 0.95062,-21.369566 z" />
  <path
     id="polygon132"
     style="fill:#028a35;fill-opacity:1;stroke-width:1"
     d="m 252.59795,149.11559 v 0 l -0.0485,0.10671 18.508,-20.82636 18.4401,20.80695 0.0485,0.0388 -18.48861,-27.1121 z" />
  <path
     id="polygon134"
     style="fill:#010101;stroke-width:1"
     d="m 252.53975,149.2417 v 0 l 18.6147,-12.49388 18.3043,12.42597 -18.4013,-18.5371 z" />
  <path
     id="polygon136"
     style="fill:#f7d108;fill-opacity:1;stroke-width:1"
     d="m 271.05745,128.39594 v 0 l -18.4789,20.79725 -0.0388,0.0485 v 0 l 18.5177,-18.60501 18.4013,18.5371 -0.0873,-0.0582 0.01,0.01 0.1358,0.097 z" />
  <path
     id="polygon138"
     style="fill:#ffffff;stroke-width:1"
     d="m 194.54218,95.900233 v 0 l -6.42154,22.242587 -26.27787,-1.38713 22.40749,12.51327 -10.72843,22.9022 21.11736,-14.18171 20.89425,14.19141 -10.50533,-22.9119 22.10678,-12.48417 -26.15177,1.37743 z" />
  <path
     id="polygon140"
     style="fill:#163d8a;fill-opacity:1;stroke-width:1"
     d="m 195.4928,121.00438 v 0 l 17.50889,28.22762 0.0291,0.0194 -9.37041,-20.41895 19.11912,-10.79633 -22.58209,1.20282 -5.66493,-19.575025 z" />
  <path
     id="polygon142"
     style="fill:#e30713;fill-opacity:1;stroke-width:1"
     d="m 188.85786,119.22924 v 0 l -22.65969,-1.20282 19.37132,10.80603 -9.55471,20.40925 0.0582,-0.0388 17.48948,-28.19851 0.96032,-21.369566 z" />
  <path
     id="polygon144"
     style="fill:#028a35;fill-opacity:1;stroke-width:1"
     d="m 176.07298,149.11559 v 0 l -0.0485,0.10671 18.4983,-20.82636 18.44011,20.80695 0.0485,0.0388 -18.48861,-27.1121 z" />
  <path
     id="polygon146"
     style="fill:#010101;stroke-width:1"
     d="m 176.01478,149.2417 v 0 l 18.60501,-12.49388 18.30429,12.42597 -18.4013,-18.5371 z" />
  <path
     id="polygon148"
     style="fill:#f7d108;fill-opacity:1;stroke-width:1"
     d="m 194.52278,128.39594 v 0 l -18.4886,20.79725 -0.0194,0.0485 v 0 l 18.508,-18.60501 18.4013,18.5371 -0.0873,-0.0582 v 0.01 l 0.14551,0.097 z" />
  <path
     id="polygon150"
     style="fill:#ffffff;stroke-width:1"
     d="m 118.00751,95.900233 v 0 l -6.42154,22.242587 -26.277868,-1.38713 22.407488,12.51327 -10.728437,22.9022 21.117367,-14.18171 20.89425,14.19141 -10.51503,-22.9119 22.11649,-12.48417 -26.15177,1.37743 z" />
  <path
     id="polygon152"
     style="fill:#163d8a;fill-opacity:1;stroke-width:1"
     d="m 118.95814,121.00438 v 0 l 17.50888,28.22762 0.0194,0.0194 -9.36071,-20.41895 19.11912,-10.79633 -22.58209,1.20282 -5.65523,-19.575025 z" />
  <path
     id="polygon154"
     style="fill:#e30713;fill-opacity:1;stroke-width:1"
     d="m 112.32319,119.22924 v 0 l -22.659693,-1.20282 19.381023,10.80603 -9.574113,20.40925 0.0679,-0.0388 17.489483,-28.19851 0.96032,-21.369566 z" />
  <path
     id="polygon156"
     style="fill:#028a35;fill-opacity:1;stroke-width:1"
     d="m 99.538308,149.11559 v 0 l -0.0485,0.10671 18.508002,-20.82636 18.43041,20.80695 0.0485,0.0388 -18.47891,-27.1121 z" />
  <path
     id="polygon158"
     style="fill:#010101;stroke-width:1"
     d="m 99.480107,149.2417 v 0 l 18.605013,-12.49388 18.314,12.42597 -18.40131,-18.5371 z" />
  <path
     id="polygon160"
     style="fill:#f7d108;fill-opacity:1;stroke-width:1"
     d="m 117.99781,128.39594 v 0 l -18.498303,20.79725 -0.0291,0.0485 h 0.0097 l 18.517703,-18.60501 18.40131,18.5371 -0.0873,-0.0582 v 0.01 l 0.13581,0.097 z" />
  <path
     id="polygon162"
     style="fill:#ffffff;stroke-width:1"
     d="m 41.482546,95.900233 v 0 l -6.43124,22.242587 -26.2778729,-1.38713 22.4074889,12.51327 -10.728434,22.9022 21.11736,-14.18171 20.894256,14.19141 -10.515029,-22.9119 22.126181,-12.48417 -26.161469,1.37743 z" />
  <path
     id="polygon164"
     style="fill:#163d8a;fill-opacity:1;stroke-width:1"
     d="m 42.423467,121.00438 v 0 l 17.518582,28.22762 0.0194,0.0194 -9.370404,-20.41895 19.119116,-10.79633 -22.582092,1.20282 -5.655223,-19.575025 z" />
  <path
     id="polygon166"
     style="fill:#e30713;fill-opacity:1;stroke-width:1"
     d="m 35.788522,119.22924 v 0 l -22.649994,-1.20282 19.371323,10.80603 -9.574109,20.40925 0.0679,-0.0388 17.489482,-28.19851 0.960321,-21.369566 z" />
  <path
     id="polygon168"
     style="fill:#028a35;fill-opacity:1;stroke-width:1"
     d="m 23.003643,149.11559 v 0 l -0.0485,0.10671 18.508004,-20.82636 18.440102,20.80695 0.0388,0.0388 -18.478903,-27.1121 z" />
  <path
     id="polygon170"
     style="fill:#010101;stroke-width:1"
     d="m 22.945442,149.2417 v 0 l 18.614706,-12.49388 18.304299,12.42597 -18.401301,-18.5371 z" />
  <path
     id="polygon172"
     style="fill:#f7d108;fill-opacity:1;stroke-width:1"
     d="m 41.463146,128.39594 v 0 l -18.498303,20.79725 -0.0291,0.0485 h 0.0097 l 18.517704,-18.60501 18.401301,18.5371 -0.0873,-0.0582 v 0.01 l 0.145503,0.097 z" />
  <path
     id="polygon174"
     style="fill:#ffffff;stroke-width:1"
     d="m 347.61152,95.900233 v 0 l -6.42154,22.242587 -26.28757,-1.38713 22.42689,12.51327 -10.73814,22.9022 21.11736,-14.18171 20.89426,14.19141 -10.51503,-22.9119 22.11648,-12.48417 -26.15177,1.37743 z" />
  <path
     id="polygon176"
     style="fill:#163d8a;fill-opacity:1;stroke-width:1"
     d="m 348.56214,121.00438 v 0 l 17.50888,28.22762 0.0291,0.0194 -9.3704,-20.41895 19.11912,-10.79633 -22.5821,1.20282 -5.66492,-19.575025 z" />
  <path
     id="polygon178"
     style="fill:#e30713;fill-opacity:1;stroke-width:1"
     d="m 341.9272,119.22924 v 0 l -22.6597,-1.20282 19.37133,10.80603 -9.56441,20.40925 0.0582,-0.0388 17.50888,-28.19851 0.95062,-21.369566 z" />
  <path
     id="polygon180"
     style="fill:#028a35;fill-opacity:1;stroke-width:1"
     d="m 329.13262,149.11559 v 0 l -0.0485,0.10671 18.508,-20.82636 18.4401,20.80695 0.0485,0.0388 -18.4886,-27.1121 z" />
  <path
     id="polygon182"
     style="fill:#010101;stroke-width:1"
     d="m 329.07442,149.2417 v 0 l 18.6147,-12.49388 18.3043,12.42597 -18.4013,-18.5371 z" />
  <path
     id="polygon184"
     style="fill:#f7d108;fill-opacity:1;stroke-width:1"
     d="m 347.59212,128.39594 v 0 l -18.4886,20.79725 -0.0291,0.0485 v 0 l 18.5177,-18.60501 18.4013,18.5371 -0.0873,-0.0582 0.01,0.01 0.1358,0.097 z" />
</svg>
