<?xml version="1.0" encoding="UTF-8" standalone="no"?>
<svg
   xmlns:dc="http://purl.org/dc/elements/1.1/"
   xmlns:cc="http://creativecommons.org/ns#"
   xmlns:rdf="http://www.w3.org/1999/02/22-rdf-syntax-ns#"
   xmlns:svg="http://www.w3.org/2000/svg"
   xmlns="http://www.w3.org/2000/svg"
   xmlns:sodipodi="http://sodipodi.sourceforge.net/DTD/sodipodi-0.dtd"
   xmlns:inkscape="http://www.inkscape.org/namespaces/inkscape"
   inkscape:version="1.0 (4035a4fb49, 2020-05-01)"
   sodipodi:docname="starGradingOnlyStars.svg"
   id="Layer_1"
   data-name="Layer 1"
   width="52.494419mm"
   height="7.9541526mm"
   viewBox="0 0 198.4041 30.062937"
   version="1.1">
  <sodipodi:namedview
     inkscape:current-layer="Layer_1"
     inkscape:window-maximized="1"
     inkscape:window-y="-8"
     inkscape:window-x="-8"
     inkscape:cy="21.175135"
     inkscape:cx="83.991918"
     inkscape:zoom="2"
     units="mm"
     fit-margin-bottom="0"
     fit-margin-right="0"
     fit-margin-left="0"
     fit-margin-top="0"
     showgrid="false"
     id="namedview1054"
     inkscape:window-height="667"
     inkscape:window-width="1280"
     inkscape:pageshadow="2"
     inkscape:pageopacity="0"
     guidetolerance="10"
     gridtolerance="10"
     objecttolerance="10"
     borderopacity="1"
     bordercolor="#666666"
     pagecolor="#ffffff"
     inkscape:document-rotation="0" />
  <metadata
     id="metadata191">
    <rdf:RDF>
      <cc:Work
         rdf:about="">
        <dc:format>image/svg+xml</dc:format>
        <dc:type
           rdf:resource="http://purl.org/dc/dcmitype/StillImage" />
        <dc:title>The Forum Footer Logos</dc:title>
      </cc:Work>
    </rdf:RDF>
  </metadata>
  <defs
     id="defs189" />
  <title
     id="title2">The Forum Footer Logos</title>
  <path
     id="polygon126"
     style="fill:#ffffff;stroke-width:1"
     d="m 140.11242,0 v 0 l -3.43017,11.881112 -14.0418,-0.740919 11.9796,6.684087 -5.73588,12.233517 11.28007,-7.575373 11.16094,7.580515 -5.61159,-12.238659 11.8086,-6.668539 -13.97442,0.735772 z" />
  <path
     id="polygon128"
     style="fill:#163d8a;fill-opacity:1;stroke-width:1"
     d="m 140.62019,13.409659 v 0 l 9.35259,15.078106 0.0158,0.01056 -5.00533,-10.907035 10.21271,-5.767014 -12.06248,0.642503 -3.02597,-10.45622 z" />
  <path
     id="polygon130"
     style="fill:#e30713;fill-opacity:1;stroke-width:1"
     d="m 137.07608,12.461426 v 0 l -12.10394,-0.642445 10.34743,5.772157 -5.10894,10.901866 0.0312,-0.02107 9.35258,-15.062603 0.50777,-11.414786 z" />
  <path
     id="polygon132"
     style="fill:#028a35;fill-opacity:1;stroke-width:1"
     d="m 130.24169,28.425597 v 0 l -0.0261,0.05699 9.88626,-11.124597 9.85003,11.114272 0.0261,0.02101 -9.8759,-14.482273 z" />
  <path
     id="polygon134"
     style="fill:#010101;stroke-width:1"
     d="m 130.21063,28.493004 v 0 l 9.94322,-6.673778 9.7775,6.637477 -9.82931,-9.901807 z" />
  <path
     id="polygon136"
     style="fill:#f7d108;fill-opacity:1;stroke-width:1"
     d="m 140.10204,17.35799 v 0 l -9.87069,11.109061 -0.0211,0.02616 v 0 l 9.89141,-9.938103 9.82932,9.901807 -0.0468,-0.03127 0.006,0.0054 0.0726,0.05195 z" />
  <path
     id="polygon138"
     style="fill:#ffffff;stroke-width:1"
     d="M 99.230554,0 V 0 L 95.800387,11.881112 81.763771,11.140193 93.733002,17.82428 88.002251,30.057797 99.282344,22.482424 110.44325,30.062939 104.83174,17.82428 116.6403,11.155741 102.67107,11.891513 Z" />
  <path
     id="polygon140"
     style="fill:#163d8a;fill-opacity:1;stroke-width:1"
     d="m 99.738324,13.409659 v 0 l 9.352596,15.078106 0.0158,0.01056 -5.00536,-10.907035 10.21269,-5.767014 -12.06244,0.642509 -3.025976,-10.45622 z" />
  <path
     id="polygon142"
     style="fill:#e30713;fill-opacity:1;stroke-width:1"
     d="m 96.194174,12.461426 v 0 l -12.103898,-0.642445 10.347388,5.772157 -5.103756,10.901866 0.03132,-0.02107 9.342206,-15.062603 0.51293,-11.414786 z" />
  <path
     id="polygon144"
     style="fill:#028a35;fill-opacity:1;stroke-width:1"
     d="m 89.365023,28.425597 v 0 l -0.02633,0.05699 9.881081,-11.124597 9.850016,11.114272 0.0263,0.02101 -9.875886,-14.482273 z" />
  <path
     id="polygon146"
     style="fill:#010101;stroke-width:1"
     d="m 89.333908,28.493004 v 0 l 9.938106,-6.673778 9.777446,6.637477 -9.829286,-9.901807 z" />
  <path
     id="polygon148"
     style="fill:#f7d108;fill-opacity:1;stroke-width:1"
     d="m 99.220174,17.35799 v 0 l -9.875889,11.109061 -0.01055,0.02616 v 0 l 9.886259,-9.938103 9.829286,9.901807 -0.0468,-0.03127 v 0.0054 l 0.0777,0.05195 z" />
  <path
     id="polygon150"
     style="fill:#ffffff;stroke-width:1"
     d="M 58.348672,0 V 0 L 54.918515,11.881112 40.881888,11.140193 52.851135,17.82428 47.120389,30.057797 58.400468,22.482424 69.561366,30.062939 63.94467,17.82428 75.758435,11.155741 61.789178,11.891513 Z" />
  <path
     id="polygon152"
     style="fill:#163d8a;fill-opacity:1;stroke-width:1"
     d="m 58.856432,13.409659 v 0 l 9.352606,15.078106 0.01055,0.01056 -5.000135,-10.907035 10.21272,-5.767014 -12.062495,0.642509 -3.020796,-10.45622 z" />
  <path
     id="polygon154"
     style="fill:#e30713;fill-opacity:1;stroke-width:1"
     d="m 55.312329,12.461426 v 0 l -12.103958,-0.642445 10.352577,5.772157 -5.114099,10.901866 0.03626,-0.02107 9.342242,-15.062603 0.512939,-11.414786 z" />
  <path
     id="polygon156"
     style="fill:#028a35;fill-opacity:1;stroke-width:1"
     d="m 48.483117,28.425597 v 0 l -0.02592,0.05699 9.886266,-11.124597 9.844845,11.114272 0.02611,0.02101 -9.870707,-14.482273 z" />
  <path
     id="polygon158"
     style="fill:#010101;stroke-width:1"
     d="m 48.45203,28.493004 v 0 l 9.938096,-6.673778 9.782643,6.637477 -9.829301,-9.901807 z" />
  <path
     id="polygon160"
     style="fill:#f7d108;fill-opacity:1;stroke-width:1"
     d="m 58.343468,17.35799 v 0 l -9.881077,11.109061 -0.01552,0.02616 h 0.0052 l 9.891428,-9.938113 9.82927,9.901807 -0.04673,-0.03121 v 0.0054 l 0.07252,0.05194 z" />
  <path
     id="polygon162"
     style="fill:#ffffff;stroke-width:1"
     d="M 17.471953,0 V 0 L 14.036635,11.881112 0,11.140193 11.969219,17.82428 6.2385052,30.057797 17.518589,22.482424 28.679498,30.062939 23.062775,17.82428 34.88173,11.155741 20.907277,11.891513 Z" />
  <path
     id="polygon164"
     style="fill:#163d8a;fill-opacity:1;stroke-width:1"
     d="m 17.974559,13.409659 v 0 l 9.357757,15.078106 0.01044,0.01056 -5.005312,-10.90704 10.212699,-5.767014 -12.062488,0.642508 -3.020803,-10.45622 z" />
  <path
     id="polygon166"
     style="fill:#e30713;fill-opacity:1;stroke-width:1"
     d="m 14.430428,12.461426 v 0 L 2.331665,11.818981 12.679084,17.591138 7.5649638,28.493004 7.6012171,28.471937 16.94343,13.409334 17.456399,1.994548 Z" />
  <path
     id="polygon168"
     style="fill:#028a35;fill-opacity:1;stroke-width:1"
     d="m 7.6012305,28.425597 v 0 l -0.02592,0.05699 9.8862675,-11.124597 9.849997,11.114272 0.02073,0.02101 -9.870724,-14.482273 z" />
  <path
     id="polygon170"
     style="fill:#010101;stroke-width:1"
     d="m 7.5701451,28.493004 v 0 l 9.9432609,-6.673778 9.777457,6.637477 -9.829271,-9.901807 z" />
  <path
     id="polygon172"
     style="fill:#f7d108;fill-opacity:1;stroke-width:1"
     d="m 17.461592,17.35799 v 0 l -9.8810829,11.109061 -0.01556,0.02616 h 0.0052 l 9.8914469,-9.938103 9.82927,9.901807 -0.04666,-0.03127 v 0.0054 l 0.07772,0.05195 z" />
  <path
     id="polygon174"
     style="fill:#ffffff;stroke-width:1"
     d="m 180.99429,0 v 0 l -3.43011,11.881112 -14.04184,-0.740919 11.97958,6.684087 -5.73584,12.233517 11.28008,-7.575373 11.16089,7.580515 -5.61673,-12.238659 11.81378,-6.668539 -13.96929,0.735772 z" />
  <path
     id="polygon176"
     style="fill:#163d8a;fill-opacity:1;stroke-width:1"
     d="m 181.50209,13.409659 v 0 l 9.35256,15.078106 0.0158,0.01056 -5.00529,-10.907035 10.21267,-5.767014 -12.06251,0.642509 -3.02595,-10.45622 z" />
  <path
     id="polygon178"
     style="fill:#e30713;fill-opacity:1;stroke-width:1"
     d="m 177.95795,12.461426 v 0 l -12.10394,-0.642445 10.34742,5.772157 -5.10893,10.901866 0.0313,-0.02107 9.35258,-15.062603 0.5078,-11.414786 z" />
  <path
     id="polygon180"
     style="fill:#028a35;fill-opacity:1;stroke-width:1"
     d="m 171.12359,28.425597 v 0 l -0.0261,0.05699 9.88628,-11.124597 9.84998,11.114272 0.0262,0.02101 -9.87588,-14.482273 z" />
  <path
     id="polygon182"
     style="fill:#010101;stroke-width:1"
     d="m 171.0925,28.493004 v 0 l 9.94325,-6.673778 9.77746,6.637477 -9.82926,-9.901807 z" />
  <path
     id="polygon184"
     style="fill:#f7d108;fill-opacity:1;stroke-width:1"
     d="m 180.98395,17.35799 v 0 l -9.8759,11.109061 -0.0159,0.02616 v 0 l 9.89146,-9.938103 9.82926,9.901807 -0.0468,-0.03127 0.006,0.0054 0.0726,0.05195 z" />
</svg>
