<?xml version="1.0" encoding="UTF-8" standalone="no"?>
<svg
   xmlns:dc="http://purl.org/dc/elements/1.1/"
   xmlns:cc="http://creativecommons.org/ns#"
   xmlns:rdf="http://www.w3.org/1999/02/22-rdf-syntax-ns#"
   xmlns:svg="http://www.w3.org/2000/svg"
   xmlns="http://www.w3.org/2000/svg"
   xmlns:sodipodi="http://sodipodi.sourceforge.net/DTD/sodipodi-0.dtd"
   xmlns:inkscape="http://www.inkscape.org/namespaces/inkscape"
   version="1.1"
   viewBox="0 0 200 78.85221"
   height="20.862982mm"
   width="52.916668mm"
   data-name="Layer 1"
   id="Layer_1"
   sodipodi:docname="starGrading.svg"
   inkscape:version="1.0 (4035a4fb49, 2020-05-01)">
  <sodipodi:namedview
     inkscape:document-rotation="0"
     pagecolor="#ffffff"
     bordercolor="#666666"
     borderopacity="1"
     objecttolerance="10"
     gridtolerance="10"
     guidetolerance="10"
     inkscape:pageopacity="0"
     inkscape:pageshadow="2"
     inkscape:window-width="1280"
     inkscape:window-height="667"
     id="namedview1054"
     showgrid="false"
     fit-margin-top="0"
     fit-margin-left="0"
     fit-margin-right="0"
     fit-margin-bottom="0"
     units="mm"
     inkscape:zoom="2"
     inkscape:cx="85.587814"
     inkscape:cy="69.964409"
     inkscape:window-x="-8"
     inkscape:window-y="-8"
     inkscape:window-maximized="1"
     inkscape:current-layer="Layer_1" />
  <metadata
     id="metadata191">
    <rdf:RDF>
      <cc:Work
         rdf:about="">
        <dc:format>image/svg+xml</dc:format>
        <dc:type
           rdf:resource="http://purl.org/dc/dcmitype/StillImage" />
        <dc:title>The Forum Footer Logos</dc:title>
      </cc:Work>
    </rdf:RDF>
  </metadata>
  <defs
     id="defs189" />
  <title
     id="title2">The Forum Footer Logos</title>
  <path
     id="path18"
     style="fill:#010101;stroke-width:1"
     d="m 59.416039,17.430948 a 2.9119924,2.9119924 0 0 0 2.906845,2.917176 h 0.150215 a 2.9482629,2.9482629 0 0 0 3.057066,-2.834275 q 0,-0.04148 0,-0.07772 A 2.8912665,2.8912665 0 0 0 62.633732,14.55004 h -0.160633 c -1.808305,0.0052 -3.05706,1.233191 -3.05706,2.880903 z m 5.238479,0 c 0,1.740977 -0.906736,2.715097 -2.17103,2.715097 -1.264296,0 -2.186613,-0.989664 -2.186613,-2.725459 0,-1.735797 0.818684,-2.715097 2.176224,-2.715097 1.357534,0 2.181419,0.989662 2.181419,2.766912 z" />
  <path
     id="path20"
     style="fill:#010101;stroke-width:1"
     d="M 68.032822,20.208225 V 20.14087 C 67.488804,19.995784 67.452508,19.560542 67.452508,18.332531 V 17.38432 h 1.461178 c 0.823847,0 1.30056,0.18135 1.554468,0.751313 h 0.05212 v -1.683982 h -0.06224 c -0.253847,0.595872 -0.709808,0.746133 -1.554403,0.746133 h -1.445682 v -2.274673 h 0.880865 c 1.30056,0 2.191754,0.129533 2.932712,1.036296 h 0.06219 l -0.43007,-1.191742 H 66.24031 v 0.07255 c 0.331592,0.04148 0.476672,0.259069 0.476672,0.699494 v 2.813546 c 0,1.217649 0,1.715073 -0.569918,1.854974 v 0.04666 c 0.290116,0 0.575156,0 0.885983,0 0.310923,0 0.606246,-0.06736 1.000027,-0.04666 z" />
  <path
     id="path22"
     style="fill:#010101;stroke-width:1"
     d="m 76.86213,14.752125 a 1.5544444,1.5544444 0 0 1 1.694287,1.253916 h 0.07258 l 0.31088,-1.036299 A 4.7825072,4.7825072 0 0 0 76.86731,14.52414 c -1.492305,0 -2.393889,0.772041 -2.393889,1.6218 0,0.735769 0.51814,1.196922 1.554474,1.419725 a 11.399258,11.399258 0 0 1 1.725398,0.331615 0.8963962,0.8963962 0 0 1 0.585515,0.886033 c 0,0.720227 -0.678757,1.342006 -1.704695,1.342006 a 1.9689628,1.9689628 0 0 1 -2.041525,-1.554446 h -0.05699 l -0.352316,1.222829 a 5.1814812,5.1814812 0 0 0 2.466362,0.549239 c 1.554468,0 2.549283,-0.865308 2.549283,-1.891242 0,-0.740951 -0.518118,-1.171013 -1.554413,-1.352367 A 8.0157494,8.0157494 0 0 1 75.805078,16.721084 0.8445812,0.8445812 0 0 1 75.286944,15.92832 c -0.0158,-0.642508 0.632107,-1.176195 1.575184,-1.176195 z" />
  <path
     id="path24"
     style="fill:#010101;stroke-width:1"
     d="m 83.012497,14.555224 a 2.8653591,2.8653591 0 0 0 -3.051864,2.663284 q 0,0.108811 0,0.217624 a 2.9068112,2.9068112 0 0 0 2.896415,2.917172 h 0.160627 a 2.9482629,2.9482629 0 0 0 3.057083,-2.834272 q 0,-0.04148 0,-0.07772 c 0.01056,-1.626983 -1.238381,-2.886086 -3.062261,-2.886086 z m 0,5.606365 c -1.336819,0 -2.18656,-0.989664 -2.18656,-2.725457 0,-1.735798 0.813473,-2.7151 2.171013,-2.7151 1.357561,0 2.212514,0.979302 2.212514,2.75655 0,1.777246 -0.906726,2.69437 -2.176246,2.69437 z" />
  <path
     id="path26"
     style="fill:#010101;stroke-width:1"
     d="m 87.142192,17.855826 c 0,0.860128 0.04673,1.466366 0.518118,1.906789 a 2.9068112,2.9068112 0 0 0 1.994858,0.575144 c 1.554437,0 2.305779,-0.787581 2.305779,-2.367938 v -0.823855 c 0,-1.424908 0.07768,-2.129587 0.751283,-2.409386 V 14.6744 c -0.29535,0 -0.590645,0.03626 -0.886,0.03626 A 6.9846386,6.9846386 0 0 1 91.043815,14.6744 v 0.06218 c 0.70984,0.326431 0.70984,1.036293 0.70984,2.409386 v 0.860128 c 0,1.383454 -0.652835,2.072591 -2.000049,2.072591 -0.917132,0 -1.55444,-0.38861 -1.740979,-1.036296 a 6.5027614,6.5027614 0 0 1 -0.150215,-1.78243 v -1.844608 c 0,-0.38343 0.124334,-0.59587 0.476648,-0.673593 v -0.06736 c -0.32126,0 -0.590665,0.03106 -0.829046,0.03106 a 8.3577272,8.3577272 0 0 1 -0.844542,-0.03106 v 0.06736 a 0.59587061,0.59587061 0 0 1 0.47672,0.673593 v 0.958574 c 0.0158,0.59069 0,1.098476 0,1.481901 z" />
  <path
     id="path28"
     style="fill:#010101;stroke-width:1"
     d="m 92.66044,15.912774 h 0.08808 a 2.4663849,2.4663849 0 0 1 1.875707,-1.036295 c 0.518166,0 0.518166,0.217622 0.518166,0.880849 v 2.2384 c 0,1.404181 0,1.95342 -0.590741,2.108865 v 0.08291 c 0.316108,0 0.616626,-0.04148 0.906752,-0.04148 a 9.7515479,9.7515479 0 0 1 1.036317,0.04148 v -0.08291 c -0.5648,-0.170989 -0.595883,-0.704684 -0.595883,-2.108865 v -2.21767 c 0,-0.683957 0.03127,-0.901579 0.585541,-0.901579 a 2.4456592,2.4456592 0 0 1 1.829031,1.036295 h 0.07771 l -0.383387,-1.202102 h -4.943141 z" />
  <path
     id="path30"
     style="fill:#010101;stroke-width:1"
     d="m 100.43781,20.213401 v -0.06218 c -0.518127,-0.15026 -0.569925,-0.621777 -0.569925,-1.865331 v -0.901579 h 3.538955 v 0.901577 c 0,1.22801 0,1.740978 -0.56476,1.865333 v 0.06218 c 0.34195,0 0.63727,-0.03106 0.90672,-0.03106 0.26941,0 0.55961,0 0.95859,0.03106 v -0.06218 c -0.51816,-0.129533 -0.57,-0.621779 -0.57,-1.865333 v -2.854997 c 0,-0.393793 0.1503,-0.606231 0.47671,-0.66323 v -0.07254 h -1.684 v 0.07254 c 0.33167,0.06736 0.47674,0.274622 0.47674,0.66323 v 1.740977 h -3.538955 v -1.740977 c 0,-0.388608 0.129493,-0.590684 0.476695,-0.66323 v -0.07254 h -1.678799 v 0.07254 c 0.362698,0.09846 0.476716,0.274622 0.476716,0.66323 v 2.875724 c 0,1.217649 0,1.730613 -0.575152,1.865333 v 0.08291 c 0.326395,0 0.626923,-0.03107 0.901556,-0.03107 0.274624,0 0.533729,-0.02592 0.968909,-0.01044 z" />
  <path
     id="path32"
     style="fill:#010101;stroke-width:1"
     d="m 107.56757,20.208225 c 0.38858,0 0.69433,-0.03627 0.91192,-0.03627 a 6.2177748,6.2177748 0 0 1 0.78761,0.03627 v -0.05179 c -0.35237,-0.119173 -0.51817,-0.295345 -0.51817,-0.621777 a 3.6788517,3.6788517 0 0 1 0.39898,-1.191741 l 0.30053,-0.652867 h 2.18138 l 0.35239,0.740951 a 4.253996,4.253996 0 0 1 0.51812,1.305734 c 0,0.217623 -0.10889,0.331616 -0.37822,0.424882 v 0.05179 c 0.51812,0 0.92743,0 1.20208,0 a 7.2540748,7.2540748 0 0 1 0.74094,0 v -0.05179 c -0.41454,-0.186536 -0.76168,-0.834223 -1.28501,-1.844612 l -1.94826,-3.761756 h -0.0622 l -1.83424,3.720305 a 4.9016813,4.9016813 0 0 1 -1.35235,1.88606 z m 2.98968,-4.782512 0.97929,2.041505 h -1.94305 z" />
  <path
     id="path34"
     style="fill:#010101;stroke-width:1"
     d="m 116.15325,14.923111 h 0.27465 c 1.29014,0 2.18655,0.129533 2.93272,1.036296 h 0.0622 l -0.43009,-1.191742 h -4.66332 v 0.07255 c 0.33164,0.04148 0.4767,0.259069 0.4767,0.699494 v 2.813546 c 0,1.217649 0,1.715073 -0.56476,1.854974 v 0.04666 c 0.28496,0 0.56992,0 0.88086,0 0.31084,0 0.61137,0 1.03624,0 v -0.06736 c -0.54404,-0.145084 -0.58549,-0.580329 -0.58549,-1.80834 v -0.974121 h 1.456 c 0.8187,0 1.29019,0.181353 1.55446,0.751316 h 0.0519 V 16.45167 h -0.0519 c -0.25392,0.595872 -0.71505,0.746133 -1.55446,0.746133 h -1.48189 v -2.274671 z" />
  <path
     id="path36"
     style="fill:#010101;stroke-width:1"
     d="m 121.40214,17.363589 c 1.20208,0 1.9223,0.103622 2.35754,1.331639 l 0.22801,0.642504 c 0.10355,0.284982 0.20723,0.564783 0.33678,0.854947 h 1.21244 v -0.09327 c -0.51814,-0.119173 -0.5751,-0.79795 -0.96891,-1.652893 a 1.9326924,1.9326924 0 0 0 -1.73582,-1.114018 c 1.35755,-0.03625 2.07262,-0.518149 2.07262,-1.32646 0,-0.51815 -0.36791,-0.968939 -1.09332,-1.176199 a 8.9898679,8.9898679 0 0 0 -1.99488,-0.129533 h -2.18138 v 0.06735 c 0.4508,0.07772 0.46636,0.362707 0.46636,0.927486 v 2.590741 c 0,1.217649 0,1.715071 -0.56483,1.854971 v 0.06736 c 0.31093,0 0.6166,0 0.90157,0 0.28502,0 0.60108,0 0.96382,0 v -0.06736 c -0.51817,-0.145082 -0.57516,-0.595871 -0.57516,-1.854971 v -0.901576 c 0.22277,-0.0052 0.4197,-0.02073 0.57516,-0.02073 z m -0.5596,-2.435294 h 1.03625 c 1.42493,0 2.16068,0.326432 2.16068,1.119197 0,1.067386 -1.03627,1.150288 -2.78246,1.150288 h -0.44043 z" />
  <path
     id="path38"
     style="fill:#010101;stroke-width:1"
     d="m 125.77007,20.146045 v 0.06736 c 0.32125,0 0.62697,0 0.93272,0 0.30568,0 0.58548,0 1.03625,0 v -0.06736 c -0.51812,-0.139899 -0.60105,-0.564783 -0.60105,-1.80834 v -2.901626 c 0,-0.398977 0.15028,-0.606237 0.51814,-0.673592 v -0.07254 0 c -0.0621,0 -0.3523,0.03106 -0.88603,0.03106 -0.23836,0 -0.51816,0 -0.85492,-0.03106 v 0.07254 a 0.59068905,0.59068905 0 0 1 0.51813,0.663226 v 2.875722 c -0.0621,1.212467 -0.0932,1.720251 -0.66324,1.84461 z" />
  <path
     id="path40"
     style="fill:#010101;stroke-width:1"
     d="m 131.49564,14.741758 a 1.6943442,1.6943442 0 0 1 1.7669,1.440456 h 0.0778 l 0.30053,-1.036301 a 4.1969998,4.1969998 0 0 0 -2.24877,-0.626958 c -1.84974,0 -3.10887,1.160653 -3.10887,2.886084 0,1.725436 1.32644,2.90681 3.10887,2.90681 a 3.9327442,3.9327442 0 0 0 2.41974,-0.756495 l -0.33159,-1.077746 h -0.0778 a 1.8446075,1.8446075 0 0 1 -1.90681,1.642532 c -1.33684,0 -2.30577,-1.036301 -2.30577,-2.652922 -0.0111,-1.735798 0.86531,-2.72546 2.30577,-2.72546 z" />
  <path
     id="path42"
     style="fill:#010101;stroke-width:1"
     d="m 138.46473,18.430973 a 4.1451852,4.1451852 0 0 1 0.51816,1.305735 c 0,0.217623 -0.114,0.331616 -0.38345,0.424881 v 0.05179 c 0.51814,0 0.93265,0 1.21245,0 0.19691,0 0.4456,0 0.73064,0 v -0.05179 c -0.41454,-0.186535 -0.75652,-0.83422 -1.27982,-1.844609 l -1.95346,-3.761756 h -0.0571 l -1.83941,3.720305 a 4.9586775,4.9586775 0 0 1 -1.34716,1.88606 v 0.05179 c 0.38858,0 0.68911,-0.03626 0.90672,-0.03626 a 6.3265893,6.3265893 0 0 1 0.7928,0.03626 v -0.05179 c -0.36268,-0.119174 -0.51815,-0.295341 -0.51815,-0.621778 a 3.6788517,3.6788517 0 0 1 0.39896,-1.191739 l 0.29538,-0.65287 h 2.17616 z m -1.08813,-0.958572 h -1.33162 l 0.9793,-2.041506 0.98446,2.041506 z" />
  <path
     id="path44"
     style="fill:#010101;stroke-width:1"
     d="M 0.58032599,0.30615138 0,2.0937625 0.11399253,2.1352146 A 3.6270367,3.6270367 0 0 1 2.9016292,0.58077005 c 0.7564988,0 0.8031328,0.32125173 0.8031328,1.30573315 v 3.3420582 c 0,2.0725873 -0.041475,2.91717 -0.880856,3.1399766 v 0.12436 C 3.2902437,8.456631 3.7306684,8.430725 4.1710893,8.430725 c 0.4404285,0 0.8808539,0 1.554448,0.062173 V 8.368538 C 4.8861392,8.1198234 4.8343231,7.3322434 4.8343231,5.2285614 V 1.9331366 c 0,-1.03629629 0.051789,-1.34200362 0.8756688,-1.34200362 A 3.6270367,3.6270367 0 0 1 8.4250866,2.1455773 H 8.5546332 L 7.9794813,0.36314765 Z" />
  <path
     id="path46"
     style="fill:#010101;stroke-width:1"
     d="m 14.166173,0.04707738 c -2.678831,0 -4.5389824,1.83424442 -4.5389824,4.28508742 0,2.450839 1.9016074,4.3368972 4.5907934,4.3368972 a 4.393896,4.393896 0 0 0 4.549341,-4.2332735 q 0,-0.051789 0,-0.1036244 C 18.7466,1.9538624 16.891626,0.04707738 14.166173,0.04707738 Z m 0,8.36291132 c -1.989691,0 -3.259157,-1.4715392 -3.259157,-4.0778239 0,-2.6062876 1.222829,-4.03119475 3.243611,-4.03119475 2.020774,0 3.253971,1.44563325 3.253971,4.05710065 0,2.6114659 -1.326459,4.051918 -3.212519,4.051918 z" />
  <path
     id="path48"
     style="fill:#010101;stroke-width:1"
     d="m 26.710535,0.26469965 v 0.0932667 c 1.036298,0.47669627 1.036298,1.49744805 1.036298,3.57004025 v 1.3005548 c 0,2.041502 -0.968939,3.0570726 -2.984532,3.0570726 -1.35755,0 -2.264309,-0.5803293 -2.549293,-1.5544474 A 9.6841918,9.6841918 0 0 1 21.985022,4.0834506 V 1.3269034 c 0,-0.58032602 0.191718,-0.89121482 0.725411,-1.03629615 V 0.18697792 c -0.518147,0 -0.886033,0.051812 -1.248739,0.051812 -0.362703,0 -0.813488,0 -1.253919,-0.051812 v 0.10362933 a 0.8860334,0.8860334 0 0 1 0.715046,1.03629615 v 1.4197257 c 0,0.8756731 0,1.6114416 0,2.2021316 0,1.2850033 0.07253,2.1814048 0.792765,2.8394533 0.606235,0.5544174 1.61144,0.85494 2.968992,0.85494 2.316122,0 3.430141,-1.1710106 3.430141,-3.5182238 V 3.9021006 c 0,-2.1244084 0.119173,-3.16588589 1.108834,-3.57004175 v -0.0932667 c -0.440426,0.0310867 -0.880851,0.056996 -1.321276,0.056996 -0.300526,0.0259053 -0.668412,0 -1.191742,-0.0310885 z" />
  <path
     id="path50"
     style="fill:#010101;stroke-width:1"
     d="M 37.456926,5.8762468 C 37.016502,4.8813981 36.177101,4.3217962 34.907639,4.2129894 c 2.010415,-0.046653 3.108888,-0.7979508 3.108888,-1.9741455 0,-0.797948 -0.549236,-1.44045159 -1.632166,-1.74097759 A 13.404493,13.404493 0 0 0 33.415372,0.31133298 h -3.243607 v 0.098448 c 0.668415,0.11399333 0.689136,0.51814813 0.689136,1.38345542 v 3.8446577 c 0,1.8238799 0,2.5492893 -0.8394,2.7669133 v 0.09844 c 0.466334,0 0.917124,-0.036253 1.347186,-0.036253 0.430064,0 0.891212,0 1.430087,0.036253 v -0.09844 C 32.006007,8.1923674 31.949009,7.5135927 31.949009,5.6378942 V 4.3114357 c 0.31089,0 0.575148,-0.036262 0.823856,-0.036262 1.782434,0 2.865362,0.1502647 3.513048,1.9845078 l 0.336796,0.9482111 C 36.772972,7.637956 36.933597,8.047292 37.140857,8.48254 h 1.766884 V 8.3374474 C 38.161609,8.161274 38.037253,7.1457044 37.456926,5.8762468 Z M 32.570789,3.9798188 31.917924,3.9487508 V 0.64812924 h 1.554443 c 2.119226,0 3.217702,0.51814806 3.217702,1.67361856 0.01553,1.5337173 -1.544082,1.658071 -4.11928,1.658071 z" />
  <path
     id="path52"
     style="fill:#010101;stroke-width:1"
     d="M 41.845642,5.7000753 V 1.3631735 A 0.89121501,0.89121501 0 0 1 42.60214,0.32687738 v -0.10362933 0 c -0.08808,0 -0.518149,0.051812 -1.321279,0.051812 -0.362703,0 -0.792766,0 -1.285008,-0.051812 v 0.10362933 a 0.8860334,0.8860334 0 0 1 0.761678,0.99484442 v 4.2799039 c 0,1.8601483 -0.057,2.5907417 -0.896397,2.7669123 v 0.098453 c 0.518148,0 0.932668,-0.036253 1.399001,-0.036253 0.367885,0 0.87049,0 1.554445,0.036253 V 8.368538 C 41.928546,8.1820034 41.845642,7.544682 41.845642,5.7000753 Z" />
  <path
     id="path54"
     style="fill:#010101;stroke-width:1"
     d="M 49.073806,3.8761947 C 47.980514,3.6844784 47.032304,3.6482102 46.337986,3.3114097 A 1.2590998,1.2590998 0 0 1 45.545221,2.1352144 c 0,-0.9689371 0.958573,-1.77206675 2.367934,-1.77206675 1.409362,0 2.316122,0.70468155 2.513026,1.87051475 h 0.113986 L 51.006505,0.74139591 A 7.134901,7.134901 0 0 0 47.949426,0.07816632 c -2.222854,0 -3.570039,1.13992598 -3.570039,2.40938888 0,1.0984741 0.761678,1.7824286 2.310939,2.1088643 1.036296,0.2279851 1.911966,0.1968922 2.549288,0.5181479 a 1.3420038,1.3420038 0 0 1 0.880852,1.3212743 c 0,1.077751 -1.036298,2.0000537 -2.549289,2.0000537 a 2.9741702,2.9741702 0 0 1 -3.057071,-2.342031 h -0.09327 l -0.518147,1.8187043 a 7.6789554,7.6789554 0 0 0 3.668485,0.8186707 c 2.326487,0 3.772129,-1.2953707 3.772129,-2.813545 -0.0054,-1.139928 -0.761681,-1.7772456 -2.269501,-2.0414997 z" />
  <path
     id="path56"
     style="fill:#010101;stroke-width:1"
     d="M 55.079133,8.4825314 V 8.394438 C 54.125759,7.9540194 54.011737,6.9539922 54.011737,5.0316617 v -3.787662 c 0.875722,1.7254322 2.103691,4.145183 3.466405,7.440609 h 0.08813 L 60.975664,0.95383658 V 5.6171684 c 0,1.8446056 -0.06732,2.5907403 -0.85492,2.766915 v 0.098453 c 0.518118,0 0.927495,-0.03624 1.331618,-0.03624 0.40415,0 0.829075,0 1.424897,0.03624 V 8.3840834 C 62.11038,8.1820034 62.022372,7.5343207 62.022372,5.7052531 V 1.9331366 c 0,-0.99484429 0.1036,-1.45081482 0.72022,-1.55444442 V 0.27506285 c -0.378272,0 -0.746186,0 -1.072625,0 -0.196895,0 -0.455954,0 -0.756493,0 L 58.032578,6.8192719 C 56.804597,4.5808742 55.778622,2.4253773 54.856344,0.30097005 h -1.036297 -0.984501 v 0.10362933 c 0.735756,0.26425533 0.860132,0.70468112 0.860132,1.58035172 v 3.24361 c 0,1.7927884 -0.12952,2.7617303 -1.077765,3.1762463 v 0.08808 c 0.518172,0 0.927518,-0.046653 1.305766,-0.046653 0.378273,0 0.694288,0.01552 1.155454,0.036253 z" />
  <path
     id="path58"
     style="fill:#010101;stroke-width:1"
     d="M 73.722153,8.715694 A 5.3939214,5.3939214 0 0 0 77.229957,7.5602287 V 5.3840038 c 0,-0.6062374 0.160621,-0.7824047 0.787583,-0.9533914 V 4.3114351 c -0.611376,0 -1.15541,0.051789 -1.606262,0.051789 a 16.290579,16.290579 0 0 1 -1.66322,-0.051789 v 0.1191773 c 1.336823,0.113992 1.424876,0.5181483 1.424876,1.8186961 0,1.4922695 -0.440417,2.1762242 -2.274677,2.1762242 -2.29017,0 -3.595878,-1.4715405 -3.595878,-4.0519187 0,-2.5803775 1.305708,-4.04155515 3.53372,-4.04155515 1.554426,0 2.590775,0.78240365 2.912014,2.17104055 h 0.09328 L 77.35951,1.0730109 A 6.6685666,6.6685666 0 0 0 73.789485,0.03671458 c -2.839487,0 -4.79809,1.70988872 -4.79809,4.27990492 -0.03127,2.6995538 1.943077,4.3990745 4.730758,4.3990745 z" />
  <path
     id="path60"
     style="fill:#010101;stroke-width:1"
     d="M 81.779311,8.4825314 V 8.3840834 C 80.98657,8.1716407 80.92439,7.492866 80.92439,5.6171684 V 4.2958898 c 0.31606,0 0.58032,-0.036247 0.82901,-0.036247 1.782431,0 2.865354,0.150262 3.507895,1.984511 l 0.341965,0.9482093 c 0.150244,0.4300639 0.310875,0.8393972 0.518161,1.2746439 h 1.766874 V 8.3374607 C 87.157679,8.166474 87.0385,7.1457186 86.45817,5.8762606 86.017751,4.8814118 85.17834,4.32181 83.867477,4.213002 c 2.010369,-0.046653 3.108849,-0.7979496 3.108849,-1.9741447 0,-0.7979481 -0.549191,-1.44045152 -1.637347,-1.74097752 A 13.404493,13.404493 0 0 0 82.375184,0.31135231 h -3.243626 v 0.098448 c 0.668441,0.113992 0.689179,0.51814813 0.689179,1.38345519 v 3.8446527 c 0,1.8238792 0,2.5492885 -0.839396,2.7669125 v 0.09844 c 0.466336,0 0.911899,-0.036253 1.341993,-0.036253 0.430033,0 0.911926,-0.0052 1.455977,0.015533 z M 80.92439,0.64812924 h 1.554409 c 2.119218,0 3.217698,0.51814806 3.217698,1.67361856 0,1.5855302 -1.554387,1.7098883 -4.145189,1.7098883 l -0.652867,-0.031052 z" />
  <path
     id="path62"
     style="fill:#010101;stroke-width:1"
     d="M 90.774359,8.4825314 V 8.4099847 C 90.256208,8.2389994 90.007535,7.9695634 90.007535,7.492866 A 5.2540219,5.2540219 0 0 1 90.593,5.7104385 l 0.440425,-0.9689397 c 0.279801,0 0.51814,0 0.782421,0 h 1.725458 c 0.170953,0 0.440428,0 0.766846,0 l 0.518156,1.0984751 a 6.4302215,6.4302215 0 0 1 0.740962,1.9430548 c 0,0.3316173 -0.160637,0.5181467 -0.56477,0.6321387 v 0.072547 c 0.787523,0 1.388569,-0.03624 1.797947,-0.03624 0.300533,0 0.668403,0 1.093268,0.03624 V 8.4151674 C 97.277115,8.140554 96.769348,7.1716146 95.981792,5.6638006 L 93.0594,0.04707738 H 92.97648 L 90.245867,5.5860825 c -0.756499,1.5544447 -1.466372,2.4663849 -2.010422,2.8031782 v 0.072533 c 0.580319,-0.03624 1.036274,-0.046653 1.362702,-0.046653 0.326471,0 0.782443,0.03108 1.176212,0.06736 z m 1.911992,-7.1349022 1.456015,3.0570766 h -2.922387 z" />
  <path
     id="path64"
     style="fill:#010101;stroke-width:1"
     d="m 102.59331,8.513618 c 1.61147,0 2.75655,-0.2746186 3.68403,-1.1451053 a 4.2332702,4.2332702 0 0 0 1.30576,-3.165886 3.5700405,3.5700405 0 0 0 -1.55444,-3.1088902 c -0.98447,-0.67877392 -2.12441,-0.82903685 -3.62702,-0.82903685 -0.60107,0 -1.23321,0 -1.87057,0 h -1.689103 v 0.098448 c 0.518119,0.0932667 0.694266,0.40415573 0.694266,1.03629635 v 4.3317161 c 0,1.6943459 0,2.3990313 -0.8394,2.5907419 v 0.098453 c 0.658064,-0.036253 1.233198,-0.046653 1.673617,-0.046653 0.78758,0.062187 1.54929,0.1399027 2.22286,0.1399027 z m -1.98449,-7.86548876 c 0.51817,-0.0362733 1.03631,-0.051812 1.47673,-0.051812 2.8446,0 4.19179,1.03629616 4.19179,3.75657216 0,2.4871103 -1.36272,3.8964713 -3.79801,3.8964713 -1.09327,0 -1.62182,-0.07772 -1.7669,-0.7046787 a 10.197153,10.197153 0 0 1 -0.10361,-1.9016048 z" />
  <path
     id="path66"
     style="fill:#010101;stroke-width:1"
     d="m 111.97698,8.4825314 v -0.098448 c -0.81347,-0.20208 -0.90677,-0.8394014 -0.90677,-2.6891903 V 1.3579922 a 0.87048895,0.87048895 0 0 1 0.7047,-1.03629629 h 0.0519 v -0.10362933 0 c -0.0881,0 -0.51817,0.051812 -1.32647,0.051812 -0.35749,0 -0.79276,0 -1.27982,-0.051812 v 0.10362933 a 0.8860334,0.8860334 0 0 1 0.75647,1.00002589 v 4.2747239 c 0,1.8601523 -0.0519,2.5907377 -0.89119,2.7669083 v 0.09844 c 0.47672,0 0.93263,-0.03624 1.399,-0.03624 0.35231,0.020733 0.84456,0.03624 1.49223,0.057 z" />
  <path
     id="path68"
     style="fill:#010101;stroke-width:1"
     d="m 114.64548,8.446262 h 0.75651 V 8.3374487 c -1.06744,-0.316072 -1.06744,-1.642529 -1.06744,-3.9690147 V 1.228455 c 2.22285,2.4249321 4.49753,4.8135976 6.62716,7.4561537 h 0.11394 V 3.9280066 c 0,-2.1244071 0.0726,-3.17624776 1.0933,-3.57004029 v -0.0880853 c -0.45597,0 -0.89122,0.051812 -1.32125,0.051812 -0.3161,0 -0.69436,0 -1.13992,-0.051812 v 0.0880853 c 0.99485,0.46633333 1.03629,1.39899989 1.03629,3.29024389 v 2.7772704 a 76.685933,76.685933 0 0 1 -5.69964,-6.11932922 h -0.91711 c -0.16063,0 -0.51817,0 -0.92231,0 v 0.098448 c 0.81868,0.31607013 0.82902,0.78758502 0.82902,1.58553302 v 2.720279 c 0,2.145132 -0.11918,3.367964 -1.09328,3.627036 V 8.441074 h 1.72544 z" />
  <path
     id="path70"
     style="fill:#010101;stroke-width:1"
     d="m 128.02921,8.715694 a 5.3835575,5.3835575 0 0 0 3.50786,-1.1554653 V 5.3840038 c 0,-0.6062374 0.16063,-0.7824047 0.78761,-0.9533914 V 4.3114351 c -0.61145,0 -1.15031,0.051789 -1.60629,0.051789 a 16.238764,16.238764 0 0 1 -1.66325,-0.051789 v 0.1191773 c 1.33167,0.113992 1.42493,0.5181483 1.42493,1.8186961 0,1.4922695 -0.44044,2.1762242 -2.27467,2.1762242 -2.29542,0 -3.57005,-1.4715405 -3.57005,-4.0519187 0,-2.5803775 1.30055,-4.04155515 3.52859,-4.04155515 1.55443,0 2.59074,0.78240365 2.91719,2.17104055 h 0.0932 l 0.51815,-1.4300885 A 6.6944747,6.6944747 0 0 0 128.1225,0.03671458 c -2.84469,0 -4.80328,1.70988872 -4.80328,4.27990492 -0.0622,2.6995538 1.9068,4.3990745 4.70997,4.3990745 z" />
  <path
     id="path72"
     style="fill:#010101;stroke-width:1"
     d="m 142.81714,8.69497 a 5.7980793,5.7980793 0 0 0 3.60113,-1.1347413 l -0.51813,-1.5907182 h -0.114 a 2.7513665,2.7513665 0 0 1 -2.83946,2.4352969 c -1.9897,0 -3.43016,-1.5544436 -3.43016,-3.9482881 0,-2.6425568 1.37309,-4.11927899 3.44573,-4.11927899 1.39899,0 2.23839,0.68913699 2.63735,2.14513319 h 0.1192 l 0.44042,-1.55444426 A 6.2177748,6.2177748 0 0 0 142.81715,4.4405982e-4 c -2.75133,0 -4.62186,1.73579604018 -4.62186,4.28508414018 0,2.5492912 1.97932,4.4094418 4.62186,4.4094418 z" />
  <path
     id="path74"
     style="fill:#010101;stroke-width:1"
     d="m 152.50138,0.04707738 c -2.68405,0 -4.53897,1.83424442 -4.53897,4.28508742 0,2.450839 1.89638,4.3368972 4.56487,4.3368972 a 4.3887146,4.3887146 0 0 0 4.54412,-4.228088 q 0,-0.056998 0,-0.1088089 c 0.0211,-2.3783026 -1.82901,-4.28508754 -4.57002,-4.28508772 z m 0,8.36291132 c -1.98973,0 -3.25914,-1.4715392 -3.25914,-4.0778239 0,-2.6062876 1.21761,-4.03119475 3.24358,-4.03119475 2.02593,0 3.24358,1.43008855 3.24358,4.04155645 0,2.6114657 -1.29536,4.0674622 -3.1814,4.0674622 z" />
  <path
     id="path76"
     style="fill:#010101;stroke-width:1"
     d="m 165.06647,0.26469965 v 0.0932667 c 1.03631,0.47669627 1.03631,1.49744805 1.03631,3.57004025 v 1.3005548 c 0,2.041502 -0.96899,3.0570726 -2.98459,3.0570726 -1.35751,0 -2.2643,-0.5803293 -2.59071,-1.5544474 a 9.6841918,9.6841918 0 0 1 -0.228,-2.647736 V 1.3269034 c 0,-0.58032602 0.18137,-0.89121482 0.71504,-1.03629615 V 0.18697792 c -0.47671,0 -0.87568,0.051812 -1.24357,0.051812 -0.36784,0 -0.81866,0 -1.25908,-0.051812 v 0.10362933 a 0.8860334,0.8860334 0 0 1 0.7254,1.03629615 v 1.4197257 c 0,0.8756731 -0.0313,1.6114416 -0.0313,2.2021316 0,1.2850033 0.0778,2.1814048 0.79275,2.8394533 0.60106,0.5544174 1.60627,0.85494 2.96385,0.85494 2.32128,0 3.43528,-1.1710106 3.43528,-3.5182238 V 3.9021006 c 0,-2.1244084 0.114,-3.16588589 1.10885,-3.57004175 v -0.0932667 c -0.44042,0.0310867 -0.88085,0.056996 -1.32126,0.056996 z" />
  <path
     id="path78"
     style="fill:#010101;stroke-width:1"
     d="m 174.89052,0.26988112 v 0.0880853 c 0.98969,0.46633333 1.03632,1.39899998 1.03632,3.29024398 v 2.7772703 a 78.603086,78.603086 0 0 1 -5.69963,-6.11932921 h -0.91715 c -0.16578,0 -0.51814,0 -0.91711,0 v 0.098448 c 0.81866,0.31607013 0.82909,0.78758501 0.82909,1.58553301 v 2.720279 c 0,2.145132 -0.1296,3.3679639 -1.09851,3.6270359 V 8.441074 h 2.47675 V 8.3374474 c -1.0674,-0.3160707 -1.0674,-1.6425277 -1.0674,-3.9690134 V 1.228455 c 2.22286,2.4249321 4.49751,4.8135976 6.62712,7.4561537 h 0.1192 V 3.9280066 c 0,-2.1244071 0.0778,-3.17624776 1.09331,-3.57004029 v -0.0880853 c -0.45077,0 -0.8912,0.051812 -1.31612,0.051812 -0.33678,0 -0.70984,-0.0259053 -1.16584,-0.051812 z" />
  <path
     id="path80"
     style="fill:#010101;stroke-width:1"
     d="m 186.06184,5.9746948 a 2.7513665,2.7513665 0 0 1 -2.83945,2.4352939 c -1.98455,0 -3.425,-1.5544449 -3.425,-3.9482915 0,-2.6425531 1.36793,-4.11927529 3.4405,-4.11927529 1.39899,0 2.2384,0.68913689 2.64257,2.14513329 h 0.13472 l 0.44562,-1.55444449 a 6.2540488,6.2540488 0 0 0 -3.34727,-0.92748506 c -2.75132,0 -4.62704,1.73579615 -4.62704,4.28508685 0,2.5492874 1.97932,4.3368989 4.59076,4.3368989 a 5.8291641,5.8291641 0 0 0 3.62707,-1.1347454 l -0.51814,-1.5907122 z" />
  <path
     id="path82"
     style="fill:#010101;stroke-width:1"
     d="M 189.98935,5.7000753 V 1.3631735 a 0.89121501,0.89121501 0 0 1 0.75653,-1.03629612 v -0.10362933 0 c -0.0933,0 -0.51816,0.051812 -1.32128,0.051812 -0.36268,0 -0.79279,0 -1.28501,-0.051812 v 0.10362933 a 0.88085195,0.88085195 0 0 1 0.75647,0.98966292 v 4.2850854 c 0,1.8601483 -0.0519,2.5907417 -0.8912,2.7669123 v 0.098453 c 0.47673,0 0.93266,-0.036253 1.399,-0.036253 0.36788,0 0.86529,0 1.55443,0.036253 V 8.368538 c -0.88085,-0.1865346 -0.96894,-0.823856 -0.96894,-2.6684627 z" />
  <path
     id="path84"
     style="fill:#010101;stroke-width:1"
     d="m 199.87564,6.5135665 c -0.96893,1.3523649 -2.30059,1.6528942 -4.22292,1.6528942 -1.03631,0 -1.44561,-0.03624 -1.55446,-0.6166 0,-0.06736 -0.0621,-0.7150413 -0.0621,-1.9223281 V 1.3631735 c 0,-0.57514426 0.16063,-0.89121465 0.70473,-1.03629612 V 0.22324805 c -0.48193,0 -0.9068,0.051812 -1.28505,0.051812 -0.37825,0 -0.81343,0 -1.228,-0.051812 v 0.10362933 a 0.88085195,0.88085195 0 0 1 0.71506,1.03629612 v 4.2643591 c 0,1.8187041 0,2.5907441 -0.8394,2.7358214 v 0.1036267 h 7.18667 l 0.65808,-1.9171515 z" />
  <path
     id="path86"
     style="fill:#010101;stroke-width:1"
     d="m 57.364195,33.617894 c -3.445721,0 -4.69445,3.057073 -4.69445,5.378379 0,2.072593 1.18657,3.627039 3.352463,3.709941 0.714987,1.036297 1.554393,2.155497 2.00006,2.414572 0.404129,-0.108811 0.911894,-0.259075 1.222803,-0.373068 a 8.9432355,8.9432355 0 0 1 -2.114094,-2.150314 c 2.79286,-0.518149 3.627042,-3.435322 3.627042,-5.269567 0.0054,-2.435297 -1.487087,-3.709943 -3.393824,-3.709943 z m -1.129587,8.197104 c -1.404203,0 -2.430093,-1.036293 -2.430093,-2.927534 0,-1.891243 0.963759,-4.331722 3.393831,-4.331722 1.362772,0 2.450879,0.932667 2.450879,2.880907 -0.0054,1.678798 -0.740947,4.378349 -3.419784,4.378349 z" />
  <path
     id="path88"
     style="fill:#010101;stroke-width:1"
     d="m 66.11569,38.022157 -0.295328,2.041501 c -0.90678,1.285008 -1.554442,1.75134 -2.155487,1.75134 -0.601061,0 -0.829063,-0.269436 -0.829063,-1.036293 0,-0.202079 0.09329,-0.958574 0.145107,-1.310918 l 0.222795,-1.476721 c 0.09848,-0.663229 0.155421,-1.036295 0.25387,-1.652892 h -1.036252 c -0.03653,0.518147 -0.145113,1.139927 -0.217639,1.694345 l -0.233208,1.689162 a 12.435555,12.435555 0 0 0 -0.145041,1.300552 c 0,1.139927 0.621798,1.715072 1.502635,1.715072 0.746114,0 1.430045,-0.352344 2.409349,-1.678803 -0.05695,0.481879 -0.134655,1.259102 -0.134655,1.554445 h 1.036246 a 21.47724,21.47724 0 0 1 0.243576,-2.751366 c 0.202053,-1.554444 0.362682,-2.663282 0.518124,-3.4975 h -1.036285 c -0.07773,0.471513 -0.165849,1.108836 -0.248744,1.658076 z" />
  <path
     id="path90"
     style="fill:#010101;stroke-width:1"
     d="m 73.276485,41.053324 a 35.275524,35.275524 0 0 1 0.730643,-4.798053 c -0.233208,0.03627 -0.544073,0.09844 -0.751358,0.124346 a 3.3213295,3.3213295 0 0 0 -1.186538,-0.217622 c -2.041486,0 -3.673692,2.103684 -3.673692,4.497527 0,1.300553 0.569984,2.041503 1.611485,2.041503 0.746082,0 1.44044,-0.45597 2.35235,-1.730613 -0.108822,1.326459 0.300533,1.730613 1.036295,1.730613 a 2.1244074,2.1244074 0 0 0 0.803127,-0.238345 l 0.08294,-0.668414 a 1.5544444,1.5544444 0 0 1 -0.445646,0.145082 c -0.352324,0.0052 -0.559616,-0.181351 -0.559616,-0.886031 z m -0.886041,-1.088112 c -0.854922,1.217648 -1.580347,1.8187 -2.12436,1.8187 -0.544039,0 -0.860131,-0.430065 -0.860131,-1.378275 0,-1.777248 1.176224,-3.399052 2.481931,-3.399052 a 1.6788,1.6788 0 0 1 0.95858,0.227984 c -0.09846,0.564783 -0.347189,2.015598 -0.45602,2.725459 z" />
  <path
     id="path92"
     style="fill:#010101;stroke-width:1"
     d="m 75.919054,37.980705 c -0.352313,2.502655 -0.585515,4.077823 -0.678756,4.59079 h 1.067401 c 0.04159,-0.455971 0.284942,-2.326484 0.663176,-4.922406 0.32644,-2.259127 0.481893,-3.310967 0.663252,-4.523435 H 76.59781 c -0.15021,1.062205 -0.367875,2.570015 -0.678756,4.855051 z" />
  <path
     id="path94"
     style="fill:#010101;stroke-width:1"
     d="m 80.110853,33.581625 a 0.60623341,0.60623341 0 0 0 -0.663176,0.616596 0.57514442,0.57514442 0 0 0 0.57515,0.580326 h 0.05698 a 0.62177748,0.62177748 0 0 0 0.663236,-0.580326 c 0,0 0,-0.02592 0,-0.04148 a 0.56478119,0.56478119 0 0 0 -0.554418,-0.575146 z" />
  <path
     id="path96"
     style="fill:#010101;stroke-width:1"
     d="m 78.789598,39.669867 c -0.233181,1.585534 -0.347117,2.414568 -0.43006,2.886085 h 1.036289 c 0.03632,-0.430064 0.238354,-1.808338 0.44043,-3.222881 0.181337,-1.274646 0.300511,-2.103684 0.445641,-3.057076 l -1.072592,0.05179 c -0.05189,0.621778 -0.171018,1.715071 -0.419708,3.342058 z" />
  <path
     id="path98"
     style="fill:#010101;stroke-width:1"
     d="m 82.717141,41.188041 a 14.839761,14.839761 0 0 1 0.19175,-1.637348 c 0.134723,-0.865308 0.28496,-1.792792 0.409302,-2.549291 h 1.554457 l 0.191738,-0.70468 h -1.642509 l 0.274569,-1.689163 -1.077749,0.362703 -0.233138,1.347185 h -0.85498 l -0.26421,0.704684 h 1.036317 c -0.134748,0.844581 -0.28504,1.974142 -0.419729,2.709914 a 15.663615,15.663615 0 0 0 -0.202074,1.6788 c 0,0.917121 0.419696,1.300552 1.155436,1.300552 a 2.5492886,2.5492886 0 0 0 1.378289,-0.518149 l 0.03632,-0.829036 a 2.4145702,2.4145702 0 0 1 -1.036279,0.518148 c -0.31087,-0.04148 -0.497436,-0.176172 -0.497436,-0.694319 z" />
  <path
     id="path100"
     style="fill:#010101;stroke-width:1"
     d="m 87.706952,41.219131 a 3.7513924,3.7513924 0 0 0 -0.25908,0.476695 2.5907405,2.5907405 0 0 0 0,-0.445606 C 87.339032,40.535174 87.188801,39.483333 87.002291,38.52476 86.68102,36.85114 86.364945,36.421077 86.1732,36.182729 l -1.067363,0.181352 c 0.243528,0.336796 0.51815,0.730588 0.948194,2.549291 0.269455,1.207283 0.51814,2.709913 0.715063,3.777299 a 13.254232,13.254232 0 0 1 -2.342019,3.01044 l 1.207264,0.160626 a 30.57074,30.57074 0 0 0 3.00526,-4.590793 c 1.424915,-2.549289 1.984525,-3.901655 2.098471,-4.948315 h -1.036236 c -0.09847,0.8394 -0.502642,2.12959 -1.994882,4.896502 z" />
  <path
     id="path102"
     style="fill:#010101;stroke-width:1"
     d="m 94.955817,39.669867 c -0.233122,1.585534 -0.352324,2.414568 -0.430039,2.886085 h 1.036317 c 0.04159,-0.430064 0.248646,-1.808338 0.445597,-3.222881 0.181327,-1.274646 0.300507,-2.103684 0.445565,-3.057076 l -1.0363,0.06218 c -0.07771,0.611413 -0.212412,1.704709 -0.46114,3.331694 z" />
  <path
     id="path104"
     style="fill:#010101;stroke-width:1"
     d="m 96.266761,33.581625 a 0.60623341,0.60623341 0 0 0 -0.658055,0.616596 0.57514442,0.57514442 0 0 0 0.57514,0.580326 h 0.057 a 0.62695915,0.62695915 0 0 0 0.668393,-0.585508 c 0,0 0,0 0,-0.03625 a 0.56996292,0.56996292 0 0 0 -0.564772,-0.575145 z" />
  <path
     id="path106"
     style="fill:#010101;stroke-width:1"
     d="m 101.85236,36.162002 c -0.6995,0 -1.42487,0.160627 -2.590695,1.694347 a 6.9431824,6.9431824 0 0 0 0.06216,-1.554447 l -1.036291,0.103622 c 0.08806,0.435246 0.05189,1.233197 -0.171029,2.994898 -0.134667,1.036299 -0.295305,2.129588 -0.476677,3.181431 h 1.036292 c 0.03121,-0.181353 0.518145,-3.756576 0.518145,-3.756576 1.114035,-1.554443 1.766925,-1.751341 2.248795,-1.751341 0.48188,0 0.75648,0.326435 0.75648,1.108839 a 9.8448152,9.8448152 0 0 1 -0.10363,1.036295 l -0.53889,3.31615 h 1.0363 c 0.0622,-0.678776 0.16063,-1.274645 0.25908,-1.979326 l 0.21761,-1.42491 a 11.399258,11.399258 0 0 0 0.1192,-1.36791 C 103.22047,36.706057 102.73838,36.162 101.85236,36.162 Z" />
  <path
     id="path108"
     style="fill:#010101;stroke-width:1"
     d="m 114.40712,33.783702 h -6.43025 l -0.1554,0.917124 h 2.66327 l -0.63217,4.507889 c -0.21242,1.497449 -0.40413,2.652918 -0.51815,3.378325 h 1.15547 c 0.0829,-0.740952 0.24871,-1.953418 0.44563,-3.342056 l 0.6373,-4.544158 h 2.73067 z" />
  <path
     id="path110"
     style="fill:#010101;stroke-width:1"
     d="m 116.27242,36.162002 c -1.72025,0 -3.27988,1.595899 -3.27988,4.077829 0,1.450814 0.88086,2.440476 2.23325,2.440476 1.92748,0 3.23843,-1.730614 3.23843,-4.077826 0,-1.518175 -0.77722,-2.440479 -2.1918,-2.440479 z m -0.90158,5.751445 c -0.8394,0 -1.36271,-0.621776 -1.36271,-1.813516 0,-1.854972 1.0363,-3.108892 2.11924,-3.108892 0.90674,0 1.32126,0.740954 1.32126,1.88088 0,1.756521 -1.01041,3.041528 -2.08294,3.041528 z" />
  <path
     id="path112"
     style="fill:#010101;stroke-width:1"
     d="m 123.95138,38.022157 -0.30568,2.041501 c -0.90678,1.285008 -1.55448,1.75134 -2.15032,1.75134 -0.59588,0 -0.82904,-0.269436 -0.82904,-1.036293 0,-0.202079 0.0932,-0.958574 0.14506,-1.310918 l 0.21764,-1.476721 c 0.10356,-0.663229 0.16061,-1.036295 0.25908,-1.652892 h -1.03632 c -0.0363,0.518147 -0.14505,1.139927 -0.21761,1.694345 l -0.23315,1.689162 a 12.435555,12.435555 0 0 0 -0.10877,1.259101 c 0,1.139926 0.62178,1.71507 1.55447,1.71507 0.74095,0 1.42487,-0.352341 2.39901,-1.6788 -0.0518,0.481876 -0.12955,1.259101 -0.12955,1.554443 h 1.0363 a 24.000622,24.000622 0 0 1 0.24874,-2.751364 c 0.20207,-1.554446 0.36787,-2.663284 0.51811,-3.497502 h -1.03626 c -0.15029,0.512965 -0.24356,1.150288 -0.33165,1.699528 z" />
  <path
     id="path114"
     style="fill:#010101;stroke-width:1"
     d="m 127.9256,37.923706 a 11.497705,11.497705 0 0 0 0.13472,-1.632166 l -1.03629,0.06218 a 15.637709,15.637709 0 0 1 -0.24873,3.171069 c -0.15545,1.145107 -0.29533,2.072592 -0.45598,3.025986 h 1.03631 c 0.0673,-0.668412 0.14509,-1.310916 0.22278,-1.880879 l 0.21243,-1.554445 c 0.64253,-1.481904 1.24876,-1.953418 1.83429,-1.953418 a 0.83421885,0.83421885 0 0 1 0.51815,0.145081 l 0.23313,-1.036295 a 1.5544444,1.5544444 0 0 0 -0.47668,-0.07772 c -0.69949,0.03626 -1.35752,0.492241 -1.97413,1.730615 z" />
  <path
     id="path116"
     style="fill:#010101;stroke-width:1"
     d="m 130.97745,39.669867 c -0.23313,1.585534 -0.35231,2.414568 -0.43001,2.886085 h 1.03629 c 0.0416,-0.430064 0.24868,-1.808338 0.44559,-3.222881 0.18133,-1.274646 0.30051,-2.103684 0.44561,-3.057076 l -1.06736,0.05179 c -0.0621,0.621778 -0.18137,1.715071 -0.43012,3.342058 z" />
  <path
     id="path118"
     style="fill:#010101;stroke-width:1"
     d="m 132.2884,33.581625 a 0.60623341,0.60623341 0 0 0 -0.65808,0.616596 0.57514442,0.57514442 0 0 0 0.57519,0.580326 h 0.0571 a 0.62695915,0.62695915 0 0 0 0.66836,-0.585508 c 0,0 0,0 0,-0.03625 a 0.56996292,0.56996292 0 0 0 -0.56475,-0.575145 z" />
  <path
     id="path120"
     style="fill:#010101;stroke-width:1"
     d="m 133.79619,38.022157 c 0,0.777222 0.37825,1.207284 1.13993,1.787609 0.65288,0.518149 0.87567,0.76686 0.87567,1.207286 0,0.595869 -0.42486,0.91194 -1.08291,0.91194 a 1.8964225,1.8964225 0 0 1 -1.40417,-0.642504 l -0.16064,0.9793 a 2.896448,2.896448 0 0 0 1.46634,0.430064 c 1.55447,0 2.19698,-0.90676 2.19698,-1.808339 0,-0.699498 -0.3679,-1.139926 -1.07259,-1.678798 -0.70471,-0.538874 -0.95859,-0.777222 -0.95859,-1.321278 a 0.9430297,0.9430297 0 0 1 0.93786,-0.948212 h 0.13473 a 1.8549701,1.8549701 0 0 1 1.22281,0.476696 l 0.1658,-0.953392 a 3.1658851,3.1658851 0 0 0 -1.2953,-0.310889 c -1.4353,0.01044 -2.16592,0.891215 -2.16592,1.870517 z" />
  <path
     id="path122"
     style="fill:#010101;stroke-width:1"
     d="m 145.87422,36.162002 c -0.75649,0 -1.55442,0.404158 -2.49223,1.678803 0.0362,-0.989665 -0.43011,-1.678803 -1.35758,-1.678803 -0.81868,0 -1.55448,0.518151 -2.45087,1.647712 a 7.4665161,7.4665161 0 0 0 0.0778,-1.554443 l -1.03629,0.06218 a 14.12472,14.12472 0 0 1 -0.19691,3.108888 c -0.14507,1.067386 -0.27459,2.041505 -0.4559,3.057075 h 1.03622 c 0.1296,-0.963757 0.36794,-2.844634 0.51816,-3.808389 0.89124,-1.300552 1.55444,-1.678801 2.07262,-1.678801 0.51816,0 0.74091,0.357522 0.74091,1.22283 a 6.5597533,6.5597533 0 0 1 -0.0621,0.818673 l -0.51818,3.440505 h 1.03634 c 0.14504,-0.989664 0.38857,-2.76691 0.51814,-3.725485 0.90157,-1.305734 1.60107,-1.782432 2.10368,-1.782432 0.50258,0 0.80309,0.367887 0.80309,1.165838 0,0.165805 -0.0362,0.585505 -0.0726,0.854942 l -0.53883,3.544133 h 1.03628 c 0.0569,-0.642503 0.16061,-1.336822 0.25907,-2.072591 l 0.25907,-1.787612 a 5.8498912,5.8498912 0 0 0 0.0569,-0.782403 c 0.0673,-1.057025 -0.31606,-1.730617 -1.33681,-1.730617 z" />
  <path
     d="m 65.851419,26.954505 h 68.245301 v 1.114019 H 65.851419 Z"
     style="fill:#010101;stroke-width:1"
     id="rect124" />
  <path
     d="m 141.70832,48.789274 v 0 l -3.43017,11.881112 -14.0418,-0.740919 11.9796,6.684087 -5.73588,12.233517 11.28007,-7.575373 11.16094,7.580515 -5.61159,-12.238659 11.8086,-6.668539 -13.97442,0.735772 z"
     style="fill:#ffffff;stroke-width:1"
     id="polygon126" />
  <path
     d="m 142.21609,62.198933 v 0 l 9.35259,15.078106 0.0158,0.01056 -5.00533,-10.907035 10.21271,-5.767014 -12.06248,0.642503 -3.02597,-10.45622 z"
     style="fill:#163d8a;fill-opacity:1;stroke-width:1"
     id="polygon128" />
  <path
     d="m 138.67198,61.2507 v 0 l -12.10394,-0.642445 10.34743,5.772157 -5.10894,10.901866 0.0312,-0.02107 9.35258,-15.062603 0.50777,-11.414786 z"
     style="fill:#e30713;fill-opacity:1;stroke-width:1"
     id="polygon130" />
  <path
     d="m 131.83759,77.214871 v 0 l -0.0261,0.05699 9.88626,-11.124597 9.85003,11.114272 0.0261,0.02101 -9.8759,-14.482273 z"
     style="fill:#028a35;fill-opacity:1;stroke-width:1"
     id="polygon132" />
  <path
     d="m 131.80653,77.282278 v 0 l 9.94322,-6.673778 9.7775,6.637477 -9.82931,-9.901807 z"
     style="fill:#010101;stroke-width:1"
     id="polygon134" />
  <path
     d="m 141.69794,66.147264 v 0 l -9.87069,11.109061 -0.0211,0.02616 v 0 l 9.89141,-9.938103 9.82932,9.901807 -0.0468,-0.03127 0.006,0.0054 0.0726,0.05195 z"
     style="fill:#f7d108;fill-opacity:1;stroke-width:1"
     id="polygon136" />
  <path
     d="m 100.82645,48.789274 v 0 l -3.430167,11.881112 -14.036616,-0.740919 11.969231,6.684087 -5.730751,12.233517 11.280093,-7.575373 11.16091,7.580515 -5.61151,-12.238659 11.80856,-6.668539 -13.96923,0.735772 z"
     style="fill:#ffffff;stroke-width:1"
     id="polygon138" />
  <path
     d="m 101.33422,62.198933 v 0 l 9.3526,15.078106 0.0158,0.01056 -5.00536,-10.907035 10.21269,-5.767014 -12.06244,0.642509 -3.02598,-10.45622 z"
     style="fill:#163d8a;fill-opacity:1;stroke-width:1"
     id="polygon140" />
  <path
     d="m 97.79007,61.2507 v 0 l -12.103898,-0.642445 10.347388,5.772157 -5.103756,10.901866 0.03132,-0.02107 9.342206,-15.062603 0.51293,-11.414786 z"
     style="fill:#e30713;fill-opacity:1;stroke-width:1"
     id="polygon142" />
  <path
     d="m 90.960919,77.214871 v 0 l -0.02633,0.05699 9.881081,-11.124597 9.85002,11.114272 0.0263,0.02101 -9.87589,-14.482273 z"
     style="fill:#028a35;fill-opacity:1;stroke-width:1"
     id="polygon144" />
  <path
     d="m 90.929804,77.282278 v 0 l 9.938106,-6.673778 9.77745,6.637477 -9.82929,-9.901807 z"
     style="fill:#010101;stroke-width:1"
     id="polygon146" />
  <path
     d="m 100.81607,66.147264 v 0 l -9.875889,11.109061 -0.01055,0.02616 v 0 l 9.886259,-9.938103 9.82929,9.901807 -0.0468,-0.03127 v 0.0054 l 0.0777,0.05195 z"
     style="fill:#f7d108;fill-opacity:1;stroke-width:1"
     id="polygon148" />
  <path
     d="m 59.944568,48.789274 v 0 l -3.430157,11.881112 -14.036627,-0.740919 11.969247,6.684087 -5.730746,12.233517 11.280079,-7.575373 11.160898,7.580515 -5.616696,-12.238659 11.813765,-6.668539 -13.969257,0.735772 z"
     style="fill:#ffffff;stroke-width:1"
     id="polygon150" />
  <path
     d="m 60.452328,62.198933 v 0 l 9.352606,15.078106 0.01055,0.01056 -5.000135,-10.907035 10.21272,-5.767014 -12.062495,0.642509 -3.020796,-10.45622 z"
     style="fill:#163d8a;fill-opacity:1;stroke-width:1"
     id="polygon152" />
  <path
     d="m 56.908225,61.2507 v 0 l -12.103958,-0.642445 10.352577,5.772157 -5.114099,10.901866 0.03626,-0.02107 9.342242,-15.062603 0.512939,-11.414786 z"
     style="fill:#e30713;fill-opacity:1;stroke-width:1"
     id="polygon154" />
  <path
     d="m 50.079013,77.214871 v 0 l -0.02592,0.05699 9.886266,-11.124597 9.844845,11.114272 0.02611,0.02101 -9.870707,-14.482273 z"
     style="fill:#028a35;fill-opacity:1;stroke-width:1"
     id="polygon156" />
  <path
     d="m 50.047926,77.282278 v 0 l 9.938096,-6.673778 9.782643,6.637477 -9.829301,-9.901807 z"
     style="fill:#010101;stroke-width:1"
     id="polygon158" />
  <path
     d="m 59.939364,66.147264 v 0 l -9.881077,11.109061 -0.01552,0.02616 h 0.0052 l 9.891428,-9.938113 9.82927,9.901807 -0.04673,-0.03121 v 0.0054 l 0.07252,0.05194 z"
     style="fill:#f7d108;fill-opacity:1;stroke-width:1"
     id="polygon160" />
  <path
     d="m 19.067849,48.789274 v 0 L 15.632531,60.670386 1.5958961,59.929467 13.565115,66.613554 7.8344013,78.847071 19.114485,71.271698 30.275394,78.852213 24.658671,66.613554 36.477626,59.945015 22.503173,60.680787 Z"
     style="fill:#ffffff;stroke-width:1"
     id="polygon162" />
  <path
     d="m 19.570455,62.198933 v 0 l 9.357757,15.078106 0.01044,0.01056 -5.005312,-10.90704 10.212699,-5.767014 -12.062488,0.642508 -3.020803,-10.45622 z"
     style="fill:#163d8a;fill-opacity:1;stroke-width:1"
     id="polygon164" />
  <path
     d="m 16.026324,61.2507 v 0 L 3.9275611,60.608255 14.27498,66.380412 9.1608599,77.282278 9.1971132,77.261211 18.539326,62.198608 19.052295,50.783822 Z"
     style="fill:#e30713;fill-opacity:1;stroke-width:1"
     id="polygon166" />
  <path
     d="m 9.1971266,77.214871 v 0 l -0.02592,0.05699 9.8862674,-11.124597 9.849997,11.114272 0.02073,0.02101 -9.870724,-14.482273 z"
     style="fill:#028a35;fill-opacity:1;stroke-width:1"
     id="polygon168" />
  <path
     d="m 9.1660412,77.282278 v 0 L 19.109302,70.6085 28.886759,77.245977 19.057488,67.34417 Z"
     style="fill:#010101;stroke-width:1"
     id="polygon170" />
  <path
     d="m 19.057488,66.147264 v 0 l -9.8810828,11.109061 -0.01556,0.02616 h 0.0052 l 9.8914468,-9.938103 9.82927,9.901807 -0.04666,-0.03127 v 0.0054 l 0.07772,0.05195 z"
     style="fill:#f7d108;fill-opacity:1;stroke-width:1"
     id="polygon172" />
  <path
     d="m 182.59019,48.789274 v 0 l -3.43011,11.881112 -14.04184,-0.740919 11.97958,6.684087 -5.73584,12.233517 11.28008,-7.575373 11.16089,7.580515 L 188.18622,66.613554 200,59.945015 186.03071,60.680787 Z"
     style="fill:#ffffff;stroke-width:1"
     id="polygon174" />
  <path
     d="m 183.09799,62.198933 v 0 l 9.35256,15.078106 0.0158,0.01056 -5.00529,-10.907035 10.21267,-5.767014 -12.06251,0.642509 -3.02595,-10.45622 z"
     style="fill:#163d8a;fill-opacity:1;stroke-width:1"
     id="polygon176" />
  <path
     d="m 179.55385,61.2507 v 0 l -12.10394,-0.642445 10.34742,5.772157 -5.10893,10.901866 0.0313,-0.02107 9.35258,-15.062603 0.5078,-11.414786 z"
     style="fill:#e30713;fill-opacity:1;stroke-width:1"
     id="polygon178" />
  <path
     d="m 172.71949,77.214871 v 0 l -0.0261,0.05699 9.88628,-11.124597 9.84998,11.114272 0.0262,0.02101 -9.87588,-14.482273 z"
     style="fill:#028a35;fill-opacity:1;stroke-width:1"
     id="polygon180" />
  <path
     d="m 172.6884,77.282278 v 0 l 9.94325,-6.673778 9.77746,6.637477 -9.82926,-9.901807 z"
     style="fill:#010101;stroke-width:1"
     id="polygon182" />
  <path
     d="m 182.57985,66.147264 v 0 l -9.8759,11.109061 -0.0159,0.02616 v 0 l 9.89146,-9.938103 9.82926,9.901807 -0.0468,-0.03127 0.006,0.0054 0.0726,0.05195 z"
     style="fill:#f7d108;fill-opacity:1;stroke-width:1"
     id="polygon184" />
</svg>
